<?xml version="1.0" standalone="no"?>
<!DOCTYPE svg PUBLIC "-//W3C//DTD SVG 1.1//EN" "http://www.w3.org/Graphics/SVG/1.1/DTD/svg11.dtd" >
<svg xmlns="http://www.w3.org/2000/svg" xmlns:xlink="http://www.w3.org/1999/xlink" version="1.1">
<metadata>
Created by FontForge 20170731 at Mon Apr 23 20:38:33 2007
 By Aleksey,,,
Copyright (c) Elektrosmog, Valentin HIndermann, Marco Walser and Pierre Miedinger. www.lineto.com, 2006. All rights reserved.
</metadata>
<defs>
<font id="BrauerNeue-Regular" horiz-adv-x="573" >
  <font-face 
    font-family="BrauerNeue-Regular"
    font-weight="400"
    font-stretch="normal"
    units-per-em="1000"
    panose-1="2 0 5 6 9 0 0 2 0 4"
    ascent="814"
    descent="-186"
    x-height="535"
    cap-height="709"
    bbox="-40 -240 847 912"
    underline-thickness="45"
    underline-position="-159"
    unicode-range="U+0020-FB02"
  />
<missing-glyph horiz-adv-x="620" 
d="M100 712h420v-712h-420v712zM444 76v560h-268v-560h268z" />
    <glyph glyph-name=".notdef" horiz-adv-x="620" 
d="M100 712h420v-712h-420v712zM444 76v560h-268v-560h268z" />
    <glyph glyph-name=".null" horiz-adv-x="0" 
 />
    <glyph glyph-name="nonmarkingreturn" horiz-adv-x="178" 
 />
    <glyph glyph-name="space" unicode=" " horiz-adv-x="178" 
 />
    <glyph glyph-name="exclam" unicode="!" horiz-adv-x="261" 
d="M86 691q0 8 5 13t13 5h52q8 0 13 -5t5 -13v-166q0 -14 -1 -34t-2.5 -44.5t-4 -51t-4.5 -51.5q-5 -60 -12 -126q-2 -18 -20 -18t-20 18q-7 66 -12 126q-2 25 -4.5 51.5t-4 51t-2.5 44.5t-1 34v166zM176 18q0 -8 -5 -13t-13 -5h-55q-8 0 -13 5t-5 13v46q0 8 5 13t13 5h55
q8 0 13 -5t5 -13v-46z" />
    <glyph glyph-name="quotedbl" unicode="&#x22;" horiz-adv-x="385" 
d="M143 510q0 -8 -5 -13t-13 -5h-36q-8 0 -13 5t-5 13v181q0 8 5 13t13 5h36q8 0 13 -5t5 -13v-181zM310 510q0 -8 -5 -13t-13 -5h-36q-8 0 -13 5t-5 13v181q0 8 5 13t13 5h36q8 0 13 -5t5 -13v-181z" />
    <glyph glyph-name="numbersign" unicode="#" horiz-adv-x="556" 
d="M378 197l-41 -180q-2 -8 -8.5 -12t-14.5 -4h-25q-15 0 -15 16v4q0 2 1 7l38 169h-138l-41 -180q-2 -8 -8.5 -12t-14.5 -4h-25q-15 0 -15 16v4q0 2 1 7l38 169h-67q-8 0 -13 3.5t-5 9.5q0 1 1 6t2 7l7 31q3 17 20 17h72l39 174h-71q-8 0 -13 3.5t-5 9.5q0 1 1 6t2 7l7 31
q3 17 20 17h76l38 167q2 8 8.5 12t14.5 4h25q15 0 15 -16v-4q0 -2 -1 -7l-36 -156h139l38 167q2 8 8.5 12t14.5 4h25q15 0 15 -16v-4q0 -2 -1 -7l-36 -156h63q8 0 13 -3.5t5 -9.5q0 -1 -1 -6t-2 -7l-7 -31q-3 -17 -20 -17h-67l-40 -174h67q8 0 13 -3.5t5 -9.5q0 -1 -1 -6
t-2 -7l-7 -31q-3 -17 -20 -17h-71zM191 271h139l39 174h-138z" />
    <glyph glyph-name="dollar" unicode="$" horiz-adv-x="556" 
d="M311 -89q0 -8 -5 -13t-13 -5h-26q-8 0 -13 5t-5 13v68q-37 5 -68 21.5t-53.5 41t-35 55t-12.5 63.5v46q0 8 5 13t13 5h45q8 0 13 -5t5 -13v-35q0 -44 24 -75.5t64 -40.5v278l-82 54q-45 29 -64.5 66t-19.5 85q0 36 11 68.5t32 58t52 42t71 21.5v67q0 8 5 13t13 5h26
q8 0 13 -5t5 -13v-67q40 -5 70.5 -21.5t51.5 -42t32 -58t11 -68.5v-8q0 -8 -5 -13t-13 -5h-45q-8 0 -13 5t-5 13v15q0 38 -21 68t-63 39v-263l80 -50q48 -31 66 -70.5t18 -93.5q0 -37 -12 -70t-33.5 -59t-51.5 -43t-67 -23v-69zM394 187q0 17 -3 29.5t-11 23t-21.5 21
t-34.5 24.5l-13 8v-237q39 10 61 40.5t22 68.5v22zM163 527q0 -33 22.5 -53t59.5 -43l4 -3v225q-45 -9 -65.5 -39.5t-20.5 -68.5v-18z" />
    <glyph glyph-name="percent" unicode="%" horiz-adv-x="724" 
d="M117 468q0 -24 15.5 -40.5t41.5 -16.5t41 16.5t15 40.5v122q0 24 -15 40.5t-41 16.5t-41.5 -16.5t-15.5 -40.5v-122zM53 590q0 30 11.5 52.5t29.5 37t39 22t41 7.5q19 0 40.5 -7.5t39 -22t29 -37t11.5 -52.5v-122q0 -30 -11.5 -52.5t-29 -37t-39 -22t-40.5 -7.5
q-20 0 -41 7.5t-39 22t-29.5 37t-11.5 52.5v122zM493 95q0 -24 15.5 -40.5t41.5 -16.5t41 16.5t15 40.5v122q0 24 -15 40.5t-41 16.5t-41.5 -16.5t-15.5 -40.5v-122zM429 217q0 30 11.5 52.5t29.5 37t39 22t41 7.5q19 0 40.5 -7.5t39 -22t29 -37t11.5 -52.5v-122
q0 -30 -11.5 -52.5t-29 -37t-39 -22t-40.5 -7.5q-20 0 -41 7.5t-39 22t-29.5 37t-11.5 52.5v122zM523 696q0 -2 -2 -8l-282 -737q-5 -15 -10.5 -18t-13.5 -3h-30q-14 0 -14 14q0 2 2 8l282 737q5 14 11 17t14 3h30q13 0 13 -13z" />
    <glyph glyph-name="ampersand" unicode="&#x26;" horiz-adv-x="584" 
d="M259 441q48 31 70 61.5t22 68.5q0 15 -3.5 30.5t-12.5 29t-24.5 22t-39.5 8.5q-26 0 -41 -8.5t-22.5 -21.5t-10 -29t-2.5 -31q0 -14 6 -30.5t15 -34t20.5 -34.5t22.5 -31zM237 349q-49 -25 -76.5 -62.5t-27.5 -94.5q0 -29 7.5 -54.5t24 -44.5t42.5 -30t62 -11
q35 0 65 11.5t58 44.5zM527 28q3 -5 3.5 -7.5t0.5 -4.5q0 -8 -5.5 -12t-12.5 -4h-37q-10 0 -15 4.5t-9 10.5l-20 31q-29 -32 -70 -50t-96 -18q-56 0 -96 17.5t-65.5 47t-37.5 68t-12 80.5q0 74 39.5 128t100.5 89q-14 24 -27.5 43.5t-23.5 38.5t-16 39.5t-6 46.5
q0 34 10.5 63t30 49t46.5 31.5t60 11.5q32 0 60 -11.5t48.5 -32t32 -49.5t11.5 -64q0 -32 -9 -57.5t-25.5 -48t-39.5 -42.5t-51 -41l137 -212q14 23 22 50.5t12 56.5q0 8 5 13t13 5h36q8 0 13 -5t5 -13q-6 -45 -21 -89.5t-41 -85.5z" />
    <glyph glyph-name="quotesingle" unicode="'" horiz-adv-x="214" 
d="M143 510q0 -8 -5 -13t-13 -5h-36q-8 0 -13 5t-5 13v181q0 8 5 13t13 5h36q8 0 13 -5t5 -13v-181z" />
    <glyph glyph-name="parenleft" unicode="(" horiz-adv-x="312" 
d="M134 257q0 -58 9 -118t26 -118.5t41 -113.5t54 -104q2 -4 2 -7q0 -5 -4 -9.5t-10 -4.5h-44q-8 0 -13.5 4t-11.5 18q-28 47 -51 102t-39 114t-24.5 119.5t-8.5 117.5t8.5 117.5t24.5 119.5t39 114t51 102q6 14 11.5 18t13.5 4h44q6 0 10 -4.5t4 -9.5q0 -3 -2 -7
q-30 -49 -54 -104t-41 -113.5t-26 -118.5t-9 -118z" />
    <glyph glyph-name="parenright" unicode=")" horiz-adv-x="312" 
d="M178 257q0 58 -9 118t-26 118.5t-41 113.5t-54 104q-2 4 -2 7q0 5 4 9.5t10 4.5h44q8 0 13.5 -4t11.5 -18q28 -47 51 -102t39 -114t24.5 -119.5t8.5 -117.5t-8.5 -117.5t-24.5 -119.5t-39 -114t-51 -102q-6 -14 -11.5 -18t-13.5 -4h-44q-6 0 -10 4.5t-4 9.5q0 3 2 7
q30 49 54 104t41 113.5t26 118.5t9 118z" />
    <glyph glyph-name="asterisk" unicode="*" horiz-adv-x="494" 
d="M264 709q11 0 16.5 -8.5t5.5 -19.5q0 -4 -0.5 -20t-1.5 -37t-2.5 -44t-2.5 -41l127 54q3 2 7 2h7q7 0 13 -2.5t8 -10.5l12 -32q1 -3 1 -8q-2 -17 -20 -22q-4 -2 -18.5 -6.5t-33.5 -10.5t-40 -12.5t-39 -11.5q11 -14 24.5 -32t25.5 -35t21.5 -30t11.5 -17q2 -5 4 -9t2 -9
q0 -10 -9 -16l-29 -18q-5 -4 -12 -4q-6 1 -11.5 5.5t-9.5 9.5q-2 3 -10.5 17t-19.5 32.5t-23 38.5l-21 35l-21 -35q-12 -20 -23 -38.5t-19.5 -32.5t-10.5 -17q-4 -5 -9.5 -9.5t-11.5 -5.5q-7 0 -12 4l-29 18q-9 6 -9 16q0 5 2 9t4 9q2 4 11.5 17t21.5 30t25.5 35t24.5 32
q-18 5 -39 11.5t-40 12.5t-33.5 10.5t-18.5 6.5q-18 5 -20 22q0 5 1 8l12 32q2 8 8 10.5t13 2.5h7q4 0 7 -2l127 -54q-1 18 -2.5 41t-2.5 44t-1.5 37t-0.5 20q0 11 5.5 19.5t16.5 8.5h34z" />
    <glyph glyph-name="plus" unicode="+" 
d="M325 19q0 -8 -5 -13t-13 -5h-40q-8 0 -13 5t-5 13v213h-186q-8 0 -13 5t-5 13v36q0 8 5 13t13 5h186v213q0 8 5 13t13 5h40q8 0 13 -5t5 -13v-213h185q8 0 13 -5t5 -13v-36q0 -8 -5 -13t-13 -5h-185v-213z" />
    <glyph glyph-name="comma" unicode="," horiz-adv-x="237" 
d="M100 -68q14 2 22.5 15t8.5 28q0 23 -20 25h-28q-8 0 -13 5t-5 13v57q0 8 5 13t13 5h71q8 0 13 -5t5 -13v-75q0 -38 -16.5 -68.5t-50.5 -35.5h-9q-11 0 -11 10v15q0 11 11 11h4z" />
    <glyph glyph-name="hyphen" unicode="-" horiz-adv-x="453" 
d="M380 304q8 0 13 -5t5 -13v-36q0 -8 -5 -13t-13 -5h-307q-8 0 -13 5t-5 13v36q0 8 5 13t13 5h307z" />
    <glyph glyph-name="period" unicode="." horiz-adv-x="237" 
d="M172 18q0 -8 -5 -13t-13 -5h-71q-8 0 -13 5t-5 13v57q0 8 5 13t13 5h71q8 0 13 -5t5 -13v-57z" />
    <glyph glyph-name="slash" unicode="/" horiz-adv-x="392" 
d="M372 696q0 -2 -2 -8l-282 -737q-5 -15 -10.5 -18t-13.5 -3h-30q-14 0 -14 14q0 2 2 8l282 737q5 14 11 17t14 3h30q13 0 13 -13z" />
    <glyph glyph-name="zero" unicode="0" horiz-adv-x="494" 
d="M247 725q40 0 75 -13.5t60.5 -38t40 -60t14.5 -79.5v-362q0 -44 -14.5 -79.5t-40 -60.5t-60.5 -38t-75 -13q-41 0 -75.5 13t-60 38t-40 60.5t-14.5 79.5v362q0 44 14.5 79.5t40 60t60 38t75.5 13.5zM247 653q-52 0 -83.5 -32.5t-31.5 -85.5v-363q0 -54 31.5 -86.5
t83.5 -32.5t83.5 32.5t31.5 86.5v363q0 53 -31.5 85.5t-83.5 32.5z" />
    <glyph glyph-name="one" unicode="1" horiz-adv-x="345" 
d="M95 621q18 3 30.5 8t20.5 14t13 22.5t10 33.5q2 7 6 8.5t9 1.5h43q8 0 13 -5t5 -13v-673q0 -8 -5 -13t-13 -5h-40q-8 0 -13 5t-5 13v528h-81q-8 0 -13 5t-5 13v38q0 8 5 13t13 5z" />
    <glyph glyph-name="two" unicode="2" horiz-adv-x="465" 
d="M66 0q-8 0 -13 5t-5 13v40q0 20 4 29.5t10 17.5l251 349q18 25 27.5 46t9.5 41q0 51 -31 82t-83 31t-82 -32.5t-30 -85.5v-6q0 -8 -5 -13t-13 -5h-37q-8 0 -13 5t-5 13v14q0 35 11.5 68t35 58t58 40t80.5 15q42 0 76.5 -13.5t59.5 -37.5t39 -58t14 -75q0 -26 -8.5 -55
t-30.5 -59l-256 -355h275q8 0 13 -5t5 -13v-36q0 -8 -5 -13t-13 -5h-339z" />
    <glyph glyph-name="three" unicode="3" horiz-adv-x="454" 
d="M216 331q-8 0 -13 5t-5 13v48q0 8 5 13t13 5h38q40 0 58 23t18 61v43q0 55 -29.5 83t-77.5 28q-27 0 -47 -9t-32.5 -24.5t-19 -35.5t-6.5 -42q0 -8 -5 -13t-13 -5h-40q-8 0 -13 5t-5 13q0 38 12.5 71.5t35.5 58t57 39t76 14.5q39 0 72 -12.5t57.5 -35.5t38 -55t13.5 -72
v-48q0 -21 -1 -38.5t-6.5 -32.5t-17 -29t-32.5 -29q24 -12 37.5 -29.5t20 -38t8 -42.5t1.5 -44v-46q0 -44 -14.5 -79.5t-40 -60.5t-60.5 -38.5t-76 -13.5t-76 13.5t-60.5 39t-39.5 61.5t-14 80v3q0 8 5 13t13 5h41q8 0 13 -5t5 -13v-3q0 -54 30.5 -88t82.5 -34t83 33t31 87
v70q0 42 -20.5 65t-60.5 23h-40z" />
    <glyph glyph-name="four" unicode="4" horiz-adv-x="488" 
d="M300 644l-194 -391h194v391zM34 248q0 13 10 34l207 418q5 9 16 9h91q8 0 13 -5t5 -13v-438h61q8 0 13 -5t5 -13v-36q0 -8 -5 -13t-13 -5h-61v-163q0 -8 -5 -13t-13 -5h-40q-8 0 -13 5t-5 13v163h-248q-8 0 -13 5t-5 13v49z" />
    <glyph glyph-name="five" unicode="5" horiz-adv-x="466" 
d="M53 172q0 8 5 13t13 5h39q8 0 13 -5t5 -13q0 -54 30.5 -86.5t80.5 -32.5t80 32.5t30 86.5v117q0 121 -112 121q-48 0 -74.5 -31t-30.5 -77q0 -8 -5 -13t-13 -5h-38q-8 0 -13 5t-5 13v389q0 8 5 13t13 5h307q8 0 13 -5t5 -13v-38q0 -8 -5 -13t-13 -5h-251v-214
q32 39 71 52t73 13q33 0 60.5 -14t47.5 -37t31 -54t11 -65v-144q0 -45 -15.5 -80.5t-41 -60t-59.5 -37.5t-71 -13q-39 0 -72.5 12.5t-58.5 36.5t-40 59t-15 80v3z" />
    <glyph glyph-name="six" unicode="6" horiz-adv-x="468" 
d="M237 389q-49 0 -77.5 -34.5t-28.5 -88.5v-91q0 -54 28.5 -88t77.5 -34t77.5 34t28.5 88v98q0 54 -24.5 85t-81.5 31zM338 554q0 45 -28 73.5t-73 28.5q-49 0 -77.5 -33.5t-28.5 -87.5v-130q32 41 65.5 53.5t67.5 12.5q30 0 57.5 -11t49 -33.5t34.5 -56.5t13 -80v-115
q0 -44 -14 -80t-38 -61.5t-57 -39t-72 -13.5t-72 13.5t-57.5 39t-38.5 61.5t-14 80v360q0 44 14 80t38.5 61.5t57.5 39.5t72 14q36 0 68.5 -12.5t56.5 -35.5t38 -55.5t14 -72.5q0 -8 -5 -13t-13 -5h-40q-8 0 -13 5t-5 13z" />
    <glyph glyph-name="seven" unicode="7" horiz-adv-x="392" 
d="M349 709q8 0 13 -5t5 -13v-35q0 -12 -4 -25t-6 -19l-218 -592q-3 -8 -7.5 -14t-13.5 -6h-42q-7 0 -12 5t-5 15q0 5 2 10l222 606h-250q-8 0 -13 5t-5 13v37q0 8 5 13t13 5h316z" />
    <glyph glyph-name="eight" unicode="8" horiz-adv-x="474" 
d="M237 725q39 0 71.5 -12.5t56 -34t36.5 -49.5t13 -59v-54q0 -18 -3 -36.5t-10.5 -36.5t-21.5 -34t-35 -28q50 -26 67 -66.5t17 -92.5v-49q0 -45 -14.5 -80.5t-40 -60t-60.5 -38t-76 -13.5t-76 13.5t-60.5 38t-40 60t-14.5 80.5v49q0 52 17 92.5t67 66.5q-21 12 -35 28
t-21.5 34t-10.5 36.5t-3 36.5v54q0 31 13 59t36.5 49.5t56 34t71.5 12.5zM237 415q48 0 77.5 27.5t29.5 79.5v24q0 52 -29.5 79.5t-77.5 27.5t-77.5 -27.5t-29.5 -79.5v-24q0 -52 29.5 -79.5t77.5 -27.5zM237 53q52 0 83 33t31 87v49q0 54 -31 87.5t-83 33.5t-83 -33.5
t-31 -87.5v-49q0 -54 31 -87t83 -33z" />
    <glyph glyph-name="nine" unicode="9" horiz-adv-x="468" 
d="M231 656q-49 0 -77.5 -33t-28.5 -87v-92q0 -59 24.5 -90t81.5 -31q22 0 41.5 9t34 25t22.5 38t8 49v92q0 54 -28.5 87t-77.5 33zM130 158q0 -45 28 -73.5t73 -28.5q49 0 77.5 33.5t28.5 87.5v130q-32 -41 -65.5 -53.5t-62.5 -12.5q-34 0 -63 12.5t-50.5 36.5t-33.5 58.5
t-12 77.5v111q0 44 14 80t38 61.5t57 39t72 13.5t72 -13.5t57.5 -39t38.5 -61.5t14 -80v-360q0 -44 -14 -80t-38.5 -61.5t-57.5 -39.5t-72 -14q-36 0 -68.5 12.5t-56.5 35.5t-38 55.5t-14 72.5q0 8 5 13t13 5h40q8 0 13 -5t5 -13z" />
    <glyph glyph-name="colon" unicode=":" horiz-adv-x="237" 
d="M172 367q0 -8 -5 -13t-13 -5h-71q-8 0 -13 5t-5 13v57q0 8 5 13t13 5h71q8 0 13 -5t5 -13v-57zM172 18q0 -8 -5 -13t-13 -5h-71q-8 0 -13 5t-5 13v57q0 8 5 13t13 5h71q8 0 13 -5t5 -13v-57z" />
    <glyph glyph-name="semicolon" unicode=";" horiz-adv-x="237" 
d="M172 367q0 -8 -5 -13t-13 -5h-71q-8 0 -13 5t-5 13v57q0 8 5 13t13 5h71q8 0 13 -5t5 -13v-57zM106 -68q14 2 22.5 15t8.5 28q0 23 -20 25h-33q-8 0 -13 5t-5 13v57q0 8 5 13t13 5h71q8 0 13 -5t5 -13v-75q0 -38 -16.5 -68.5t-50.5 -35.5h-7q-11 0 -11 10v15q0 11 11 11
h7z" />
    <glyph glyph-name="less" unicode="&#x3c;" 
d="M131 296q0 10 4 14t10 8l271 211q7 4 13 4q13 0 13 -15v-52q0 -8 -3.5 -12t-11.5 -10l-225 -176l225 -177q8 -6 11.5 -10t3.5 -12v-52q0 -15 -13 -15q-6 0 -13 4l-271 212q-6 4 -10 8t-4 14v56z" />
    <glyph glyph-name="equal" unicode="=" 
d="M456 407q8 0 13 -5t5 -13v-36q0 -8 -5 -13t-13 -5h-340q-8 0 -13 5t-5 13v36q0 8 5 13t13 5h340zM456 201q8 0 13 -5t5 -13v-36q0 -8 -5 -13t-13 -5h-340q-8 0 -13 5t-5 13v36q0 8 5 13t13 5h340z" />
    <glyph glyph-name="greater" unicode="&#x3e;" 
d="M442 240q0 -10 -4 -14t-10 -8l-271 -212q-7 -4 -13 -4q-13 0 -13 15v52q0 8 3.5 12.5t11.5 9.5l225 177l-225 176q-8 5 -11.5 9.5t-3.5 12.5v52q0 15 13 15q6 0 13 -4l271 -211q6 -4 10 -8t4 -14v-56z" />
    <glyph glyph-name="question" unicode="?" horiz-adv-x="478" 
d="M175 251q0 12 1 23t4.5 22t10.5 23.5t19 26.5l107 121q13 14 22.5 32t9.5 43q0 54 -26.5 84t-82.5 30q-55 0 -82 -32t-27 -83v-4q0 -8 -5 -13t-13 -5h-43q-8 0 -13 5t-5 13v12q0 40 14 73t39 57t59 37.5t75 13.5q38 0 72 -12t59.5 -35t40.5 -58t15 -81q0 -8 -1.5 -20
t-6 -27t-11.5 -30.5t-19 -28.5l-100 -114q-10 -11 -16 -19t-9 -17t-4 -20.5t-1 -30.5v-24q0 -8 -5 -13t-13 -5h-47q-8 0 -13 5t-5 13v38zM263 18q0 -8 -5 -13t-13 -5h-57q-8 0 -13 5t-5 13v57q0 8 5 13t13 5h57q8 0 13 -5t5 -13v-57z" />
    <glyph glyph-name="at" unicode="@" horiz-adv-x="762" 
d="M455 373q0 42 -18.5 58t-63.5 16q-21 0 -39 -11.5t-32 -32.5t-22 -50t-8 -64q0 -39 19.5 -55.5t54.5 -16.5q42 0 66.5 31t36.5 84q2 9 4 22.5t2 18.5zM558 24q-8 -10 -26 -20t-43 -18t-55.5 -13t-63.5 -5q-76 0 -137 28.5t-103.5 77.5t-65.5 115.5t-23 143.5
q0 63 23.5 128.5t68 118.5t109 86.5t146.5 33.5q70 0 130.5 -21.5t105.5 -60.5t70.5 -92.5t25.5 -117.5t-17 -112t-45.5 -80.5t-64.5 -48.5t-74 -16q-8 0 -18 1t-20.5 6t-20 16.5t-15.5 32.5q-15 -18 -30 -29t-29.5 -17t-29.5 -8t-31 -2q-30 0 -52 13t-36.5 33t-21.5 44
t-7 46q0 53 14.5 95.5t39.5 72t59 45.5t73 16q33 0 55 -10.5t39 -30.5l7 24q2 8 6 11.5t14 3.5h28q13 0 13 -13q0 -5 -1 -8l-43 -200q-5 -20 -5 -36q0 -8 0.5 -15.5t3.5 -13t10 -8.5t20 -3q21 0 42 12.5t37.5 36t27 55.5t10.5 71q0 56 -20.5 101t-57 77t-86.5 49t-109 17
q-55 0 -106 -23t-90 -64t-62 -97t-23 -122q0 -63 17.5 -117.5t52 -94.5t86 -63t119.5 -23q80 0 131 34q5 4 10.5 7.5t12.5 3.5q8 0 11.5 -4.5t7.5 -10.5q11 -18 11 -26q0 -5 -5 -12z" />
    <glyph glyph-name="A" unicode="A" horiz-adv-x="528" 
d="M306 709q12 0 16 -14l180 -672q1 -5 1 -7q0 -7 -6 -11.5t-14 -4.5h-41q-7 0 -10.5 5t-5.5 12l-40 151h-244l-40 -151q-2 -7 -5.5 -12t-10.5 -5h-41q-8 0 -14 4.5t-6 11.5q0 3 1 7l180 672q3 14 16 14h84zM264 631l-103 -389h206z" />
    <glyph glyph-name="B" unicode="B" horiz-adv-x="497" 
d="M359 547q0 49 -22.5 71.5t-71.5 22.5h-125v-231h127q49 0 70.5 23t21.5 72v42zM278 68q44 0 66.5 19t22.5 66v90q0 50 -23.5 72.5t-71.5 22.5h-132v-270h138zM78 0q-8 0 -13 5t-5 13v673q0 8 5 13t13 5h229q57 0 91 -35t34 -89v-92q0 -39 -16 -70t-54 -48
q47 -12 68.5 -50t21.5 -85v-107q0 -28 -10 -52.5t-28 -42.5t-42.5 -28t-53.5 -10h-240z" />
    <glyph glyph-name="C" unicode="C" horiz-adv-x="495" 
d="M448 175q0 -44 -15 -80t-41.5 -61.5t-62.5 -39t-77 -13.5t-77 13.5t-62.5 39t-41.5 61.5t-15 80v360q0 44 15 80t41.5 61.5t62.5 39.5t77 14t77 -14t62.5 -39.5t41.5 -61.5t15 -80v-11q0 -8 -5 -13t-13 -5h-46q-8 0 -13 5t-5 13v11q0 54 -31 87.5t-83 33.5t-83 -33.5
t-31 -87.5v-360q0 -54 31 -87t83 -33t83 33t31 87v13q0 8 5 13t13 5h46q8 0 13 -5t5 -13v-13z" />
    <glyph glyph-name="D" unicode="D" horiz-adv-x="497" 
d="M364 549q0 92 -83 92h-140v-573h140q83 0 83 92v389zM306 709q28 0 53 -10t43.5 -29t29 -46.5t10.5 -61.5v-415q0 -34 -10.5 -61.5t-29 -46.5t-43.5 -29t-53 -10h-227q-8 0 -13 5t-5 13v673q0 8 5 13t13 5h227z" />
    <glyph glyph-name="E" unicode="E" horiz-adv-x="452" 
d="M141 637v-221h212q8 0 13 -5t5 -13v-36q0 -8 -5 -13t-13 -5h-212v-272h258q8 0 13 -5t5 -13v-36q0 -8 -5 -13t-13 -5h-320q-8 0 -13 5t-5 13v673q0 8 5 13t13 5h316q8 0 13 -5t5 -13v-36q0 -8 -5 -13t-13 -5h-254z" />
    <glyph glyph-name="F" unicode="F" horiz-adv-x="425" 
d="M132 637v-221h207q8 0 13 -5t5 -13v-36q0 -8 -5 -13t-13 -5h-207v-326q0 -8 -5 -13t-13 -5h-44q-8 0 -13 5t-5 13v673q0 8 5 13t13 5h312q8 0 13 -5t5 -13v-36q0 -8 -5 -13t-13 -5h-250z" />
    <glyph glyph-name="G" unicode="G" horiz-adv-x="504" 
d="M366 52q-23 -34 -56.5 -52.5t-77.5 -18.5q-33 0 -65 11.5t-56.5 35.5t-39.5 60.5t-15 86.5v360q0 44 15 80t41.5 61.5t62.5 39.5t77 14t77 -14t62.5 -39.5t41.5 -61.5t15 -80v-11q0 -8 -5 -13t-13 -5h-46q-8 0 -13 5t-5 13v11q0 54 -31 87.5t-83 33.5t-83 -33.5
t-31 -87.5v-360q0 -54 31 -87t83 -33t83 33t31 87v145h-85q-8 0 -13 5t-5 13v43q0 8 5 13t13 5h149q8 0 13 -5t5 -13v-363q0 -8 -5 -13t-13 -5h-46q-8 0 -13 5t-5 13v34z" />
    <glyph glyph-name="H" unicode="H" horiz-adv-x="531" 
d="M386 406v285q0 8 5 13t13 5h44q8 0 13 -5t5 -13v-673q0 -8 -5 -13t-13 -5h-44q-8 0 -13 5t-5 13v317h-241v-317q0 -8 -5 -13t-13 -5h-44q-8 0 -13 5t-5 13v673q0 8 5 13t13 5h44q8 0 13 -5t5 -13v-285h241z" />
    <glyph glyph-name="I" unicode="I" horiz-adv-x="212" 
d="M146 18q0 -8 -5 -13t-13 -5h-44q-8 0 -13 5t-5 13v673q0 8 5 13t13 5h44q8 0 13 -5t5 -13v-673z" />
    <glyph glyph-name="J" unicode="J" horiz-adv-x="460" 
d="M115 175q0 -54 26.5 -87t81.5 -33t81.5 33t26.5 87v516q0 8 5 13t13 5h44q8 0 13 -5t5 -13v-516q0 -44 -14 -80t-39 -61.5t-59.5 -39t-75.5 -13.5t-75.5 13.5t-59.5 39t-39 61.5t-14 80v20q0 8 5 13t13 5h44q8 0 13 -5t5 -13v-20z" />
    <glyph glyph-name="K" unicode="K" horiz-adv-x="478" 
d="M141 18q0 -8 -5 -13t-13 -5h-44q-8 0 -13 5t-5 13v673q0 8 5 13t13 5h44q8 0 13 -5t5 -13v-291l199 288q6 9 12.5 15t18.5 6h32q23 0 23 -15q0 -5 -5 -13l-203 -293l223 -359q2 -4 2 -12q0 -17 -22 -17h-37q-9 0 -15 7t-11 15l-217 347v-351z" />
    <glyph glyph-name="L" unicode="L" horiz-adv-x="413" 
d="M370 72q8 0 13 -5t5 -13v-36q0 -8 -5 -13t-13 -5h-291q-8 0 -13 5t-5 13v673q0 8 5 13t13 5h44q8 0 13 -5t5 -13v-619h229z" />
    <glyph glyph-name="M" unicode="M" horiz-adv-x="644" 
d="M504 640l-142 -618q-2 -9 -7.5 -15.5t-14.5 -6.5h-36q-9 0 -14.5 6.5t-7.5 15.5l-142 618v-622q0 -8 -5 -13t-13 -5h-43q-8 0 -13 5t-5 13v673q0 8 5 13t13 5h100q9 0 14.5 -6.5t7.5 -15.5l121 -527l121 527q2 9 7.5 15.5t14.5 6.5h100q8 0 13 -5t5 -13v-673q0 -8 -5 -13
t-13 -5h-43q-8 0 -13 5t-5 13v622z" />
    <glyph glyph-name="N" unicode="N" horiz-adv-x="545" 
d="M57 691q0 8 5 13t13 5h53q15 0 23 -17l257 -542v541q0 8 5 13t13 5h44q8 0 13 -5t5 -13v-673q0 -8 -5 -13t-13 -5h-53q-15 0 -23 17l-257 542v-541q0 -8 -5 -13t-13 -5h-44q-8 0 -13 5t-5 13v673z" />
    <glyph glyph-name="O" unicode="O" horiz-adv-x="500" 
d="M250 55q52 0 83 33t31 87v360q0 54 -31 87.5t-83 33.5t-83 -33.5t-31 -87.5v-360q0 -54 31 -87t83 -33zM250 730q41 0 77 -14t62.5 -39.5t41.5 -61.5t15 -80v-360q0 -44 -15 -80t-41.5 -61.5t-62.5 -39t-77 -13.5t-77 13.5t-62.5 39t-41.5 61.5t-15 80v360q0 44 15 80
t41.5 61.5t62.5 39.5t77 14z" />
    <glyph glyph-name="P" unicode="P" horiz-adv-x="475" 
d="M141 18q0 -8 -5 -13t-13 -5h-44q-8 0 -13 5t-5 13v673q0 8 5 13t13 5h228q63 0 95 -37t32 -96v-167q0 -59 -32.5 -96t-95.5 -37h-165v-258zM356 556q0 47 -22.5 66t-66.5 19h-126v-297h126q45 0 67 19t22 66v127z" />
    <glyph glyph-name="Q" unicode="Q" horiz-adv-x="516" 
d="M488 50q13 0 13 -12q0 -2 -1 -4l-1 -4l-16 -29q-3 -8 -11.5 -14t-17.5 -6h-202q-41 0 -77 13.5t-62.5 39t-41.5 61.5t-15 80v360q0 44 15 80t41.5 61.5t62.5 39.5t77 14t77 -14t62.5 -39.5t41.5 -61.5t15 -80v-363q0 -72 -39 -122h79zM252 52q52 0 83 33t31 87v363
q0 54 -31 87.5t-83 33.5t-83 -33.5t-31 -87.5v-363q0 -54 31 -87t83 -33z" />
    <glyph glyph-name="R" unicode="R" horiz-adv-x="495" 
d="M139 641v-248h130q49 0 71.5 23t22.5 72v68q0 44 -22.5 64.5t-64.5 20.5h-137zM445 18q0 -8 -5 -13t-13 -5h-44q-8 0 -13 5t-5 13v227q0 45 -24 62.5t-70 17.5h-131v-307q0 -8 -5 -13t-13 -5h-44q-8 0 -13 5t-5 13v673q0 8 5 13t13 5h223q65 0 100 -34.5t35 -97.5v-102
q0 -45 -16.5 -74t-55.5 -43q47 -17 64 -47t17 -82v-211z" />
    <glyph glyph-name="S" unicode="S" horiz-adv-x="466" 
d="M116 175q0 -26 8.5 -47.5t24.5 -37.5t37 -25t47 -9q27 0 48.5 9t36.5 25t23 36t8 43v18q0 17 -3 29.5t-11 23t-21.5 21t-34.5 24.5l-157 102q-45 29 -64.5 66t-19.5 85q0 40 13 75t38 61t62 41t84 15t83.5 -15t61.5 -41t38 -61t13 -75v-8q0 -8 -5 -13t-13 -5h-45
q-8 0 -13 5t-5 13v15q0 45 -29 78t-86 33q-60 0 -88.5 -33t-28.5 -78v-18q0 -33 22.5 -53t59.5 -43l146 -92q48 -31 66 -68.5t18 -91.5q0 -41 -14.5 -77t-40.5 -63t-62.5 -42.5t-79.5 -15.5q-42 0 -78 15t-63 40t-42 58.5t-15 69.5v42q0 8 5 13t13 5h45q8 0 13 -5t5 -13v-31
z" />
    <glyph glyph-name="T" unicode="T" horiz-adv-x="447" 
d="M406 709q8 0 13 -5t5 -13v-36q0 -8 -5 -13t-13 -5h-143v-619q0 -8 -5 -13t-13 -5h-44q-8 0 -13 5t-5 13v619h-142q-8 0 -13 5t-5 13v36q0 8 5 13t13 5h365z" />
    <glyph glyph-name="U" unicode="U" horiz-adv-x="504" 
d="M56 691q0 8 5 13t13 5h46q8 0 13 -5t5 -13v-516q0 -54 31 -87t83 -33t83 33t31 87v516q0 8 5 13t13 5h46q8 0 13 -5t5 -13v-516q0 -44 -15 -80t-41.5 -61.5t-62.5 -39t-77 -13.5t-77 13.5t-62.5 39t-41.5 61.5t-15 80v516z" />
    <glyph glyph-name="V" unicode="V" horiz-adv-x="492" 
d="M188 0q-8 0 -12 5t-6 13l-145 669q-1 0 -1 2v1q0 8 5.5 13.5t13.5 5.5h37q9 0 16.5 -6.5t9.5 -15.5l140 -646l140 646q2 9 9.5 15.5t16.5 6.5h37q8 0 13.5 -5.5t5.5 -13.5v-1q0 -1 -1 -2l-145 -669q-2 -8 -6 -13t-12 -5h-116z" />
    <glyph glyph-name="W" unicode="W" horiz-adv-x="788" 
d="M394 621l-115 -604q-2 -7 -5.5 -12t-10.5 -5h-94q-10 0 -15 6.5t-7 15.5l-120 655q-1 3 -1.5 7.5t-0.5 5.5q0 8 4 13.5t12 5.5h43q9 0 16 -6.5t9 -15.5l107 -626l115 631q2 7 6 12t12 5h90q8 0 12 -5t6 -12l115 -631l107 626q2 9 9 15.5t16 6.5h43q8 0 12 -5.5t4 -13.5
q0 -1 -0.5 -5.5t-1.5 -7.5l-120 -655q-2 -9 -7 -15.5t-15 -6.5h-94q-7 0 -10.5 5t-5.5 12z" />
    <glyph glyph-name="X" unicode="X" horiz-adv-x="550" 
d="M407 686q8 14 12 18.5t14 4.5h46q8 0 12.5 -5t4.5 -12q0 -4 -2 -8l-160 -315l184 -342q1 -3 1.5 -5t0.5 -4q0 -7 -4.5 -12.5t-12.5 -5.5h-50q-8 0 -14 5t-14 19l-150 284l-150 -284q-8 -14 -14 -19t-14 -5h-50q-8 0 -12.5 5.5t-4.5 12.5q0 2 0.5 4t1.5 5l184 342
l-160 315q-2 4 -2 8q0 7 4.5 12t12.5 5h46q10 0 14 -4.5t12 -18.5l132 -255z" />
    <glyph glyph-name="Y" unicode="Y" horiz-adv-x="520" 
d="M220 331l-187 355q-2 4 -2 7q0 16 17 16h41q9 0 14 -4t13 -19l144 -265l144 265q8 15 13 19t14 4h41q17 0 17 -16q0 -3 -2 -7l-187 -355v-313q0 -8 -5 -13t-13 -5h-44q-8 0 -13 5t-5 13v313z" />
    <glyph glyph-name="Z" unicode="Z" horiz-adv-x="501" 
d="M440 709q8 0 13 -5t5 -13v-34q0 -12 -0.5 -21.5t-4.5 -15.5l-333 -548h328q8 0 13 -5t5 -13v-36q0 -8 -5 -13t-13 -5h-395q-8 0 -13 5t-5 13v34q0 12 0.5 21.5t4.5 15.5l333 548h-296q-8 0 -13 5t-5 13v36q0 8 5 13t13 5h363z" />
    <glyph glyph-name="bracketleft" unicode="[" horiz-adv-x="277" 
d="M209 -147q8 0 13 -5t5 -13v-31q0 -8 -5 -13t-13 -5h-36q-51 0 -79.5 33.5t-28.5 83.5v708q0 50 28.5 83.5t79.5 33.5h36q8 0 13 -5t5 -13v-31q0 -8 -5 -13t-13 -5h-27q-25 0 -35 -12t-10 -31v-722q0 -19 10 -31t35 -12h27z" />
    <glyph glyph-name="backslash" unicode="\" horiz-adv-x="392" 
d="M20 696q0 13 13 13h30q8 0 14 -3t11 -17l282 -737q2 -6 2 -8q0 -14 -14 -14h-30q-8 0 -13.5 3t-10.5 18l-282 737q-2 6 -2 8z" />
    <glyph glyph-name="bracketright" unicode="]" horiz-adv-x="277" 
d="M95 -147q25 0 35 12t10 31v722q0 19 -10 31t-35 12h-27q-8 0 -13 5t-5 13v31q0 8 5 13t13 5h36q51 0 79.5 -33.5t28.5 -83.5v-708q0 -50 -28.5 -83.5t-79.5 -33.5h-36q-8 0 -13 5t-5 13v31q0 8 5 13t13 5h27z" />
    <glyph glyph-name="asciicircum" unicode="^" 
d="M307 729q12 0 17 -11l149 -267q3 -5 3 -10q0 -11 -10 -18l-30 -15q-5 -3 -9 -3q-12 0 -18 10l-123 222l-123 -222q-6 -10 -18 -10q-5 0 -9 3l-30 15q-10 7 -10 18q0 5 3 10l149 267q5 11 17 11h42z" />
    <glyph glyph-name="underscore" unicode="_" horiz-adv-x="529" 
d="M476 -85q8 0 13 -5t5 -13v-36q0 -8 -5 -13t-13 -5h-423q-8 0 -13 5t-5 13v36q0 8 5 13t13 5h423z" />
    <glyph glyph-name="grave" unicode="`" horiz-adv-x="313" 
d="M95 719q-2 4 -2 6q0 6 5 10.5t12 4.5h49q9 0 16 -6.5t11 -14.5l31 -70q3 -5 3 -11q0 -16 -18 -16h-24q-11 0 -16 3.5t-12 12.5z" />
    <glyph glyph-name="a" unicode="a" horiz-adv-x="445" 
d="M166 213q-34 -18 -44.5 -38t-10.5 -44q0 -40 24.5 -59.5t59.5 -19.5q22 0 44 6.5t40 20t29.5 33t11.5 45.5v133zM266 332q29 14 41 28.5t12 34.5q0 38 -22 63t-73 25q-44 0 -68 -25t-24 -67v-4q0 -8 -5 -13t-13 -5h-38q-8 0 -13 5t-5 13v11q0 32 12.5 60t35.5 48.5t55 32
t70 11.5q42 0 72.5 -12.5t50.5 -34.5t30 -51.5t10 -63.5v-370q0 -8 -5 -13t-13 -5h-38q-8 0 -13 5t-5 13v48q-20 -33 -58.5 -55t-85.5 -22q-26 0 -51.5 8.5t-45.5 25.5t-32.5 42.5t-12.5 58.5q0 45 21.5 82t71.5 60z" />
    <glyph glyph-name="b" unicode="b" horiz-adv-x="444" 
d="M399 152q0 -41 -12 -72.5t-31.5 -52.5t-44.5 -32t-50 -11q-50 0 -82.5 24t-49.5 57v-47q0 -8 -5 -13t-13 -5h-38q-8 0 -13 5t-5 13v673q0 8 5 13t13 5h38q8 0 13 -5t5 -13v-221q17 33 49.5 57t82.5 24q25 0 50 -11t44.5 -32t31.5 -52.5t12 -72.5v-231zM129 175
q0 -16 4 -37.5t15 -40.5t30.5 -32t50.5 -13q30 0 48.5 11.5t29 29.5t14 39.5t3.5 42.5v185q0 21 -3.5 42.5t-14 39.5t-29 29.5t-48.5 11.5q-31 0 -50.5 -13t-30.5 -32t-15 -40.5t-4 -37.5v-185z" />
    <glyph glyph-name="c" unicode="c" horiz-adv-x="443" 
d="M48 378q0 34 13 65t36.5 55t56 38t71.5 14t71.5 -14t56.5 -38t37 -55t13 -65v-5q0 -8 -5 -13t-13 -5h-39q-8 0 -13 5t-5 13v5q0 21 -8 40.5t-21.5 33.5t-32.5 22.5t-41 8.5t-40.5 -8.5t-32 -22.5t-21.5 -33.5t-8 -40.5v-221q0 -21 8 -40.5t21.5 -33.5t32 -22.5t40.5 -8.5
t41 8.5t32.5 22.5t21.5 33.5t8 40.5v10q0 8 5 13t13 5h39q8 0 13 -5t5 -13v-10q0 -34 -13 -65t-37 -55t-56.5 -38t-71.5 -14t-71.5 14t-56 38t-36.5 55t-13 65v221z" />
    <glyph glyph-name="d" unicode="d" horiz-adv-x="444" 
d="M45 383q0 41 12 72.5t31.5 52.5t44 32t50.5 11q50 0 82.5 -24t49.5 -57v221q0 8 5 13t13 5h38q8 0 13 -5t5 -13v-673q0 -8 -5 -13t-13 -5h-38q-8 0 -13 5t-5 13v47q-17 -33 -49.5 -57t-82.5 -24q-26 0 -50.5 11t-44 32t-31.5 52.5t-12 72.5v231zM315 360q0 16 -4 37.5
t-15 40.5t-30.5 32t-50.5 13q-30 0 -48.5 -11.5t-29 -29.5t-14 -39.5t-3.5 -42.5v-185q0 -21 3.5 -42.5t14 -39.5t29 -29.5t48.5 -11.5q31 0 50.5 13t30.5 32t15 40.5t4 37.5v185z" />
    <glyph glyph-name="e" unicode="e" horiz-adv-x="446" 
d="M333 314v64q0 21 -8.5 40.5t-23 33.5t-33.5 22.5t-41 8.5q-23 0 -42 -8.5t-33.5 -22.5t-22.5 -33.5t-8 -40.5v-64h212zM121 252v-95q0 -21 8 -40.5t22.5 -33.5t33.5 -22.5t42 -8.5q21 0 39.5 7.5t33 21t23 31t8.5 37.5v8q0 8 5 13t13 5h39q8 0 13 -5t5 -13v-8
q0 -33 -14 -63t-38 -52.5t-57 -35.5t-70 -13q-39 0 -71.5 14t-56.5 38t-37.5 55t-13.5 65v221q0 34 13.5 65t37.5 55t56.5 38t71.5 14t71.5 -14t56.5 -38t37.5 -55t13.5 -65v-108q0 -8 -5 -13t-13 -5h-267z" />
    <glyph glyph-name="f" unicode="f" horiz-adv-x="281" 
d="M53 590q0 53 33.5 86t96.5 33h55q8 0 13 -5t5 -13v-34q0 -8 -5 -13t-13 -5h-43q-43 0 -55.5 -16.5t-12.5 -54.5v-58h111q8 0 13 -5t5 -13v-34q0 -8 -5 -13t-13 -5h-111v-422q0 -8 -5 -13t-13 -5h-38q-8 0 -13 5t-5 13v572z" />
    <glyph glyph-name="g" unicode="g" horiz-adv-x="446" 
d="M315 82q-17 -33 -49.5 -57t-82.5 -24q-26 0 -50.5 11t-44 32t-31.5 52.5t-12 72.5v214q0 41 12 72.5t31.5 52.5t44 32t50.5 11q50 0 82.5 -24t49.5 -57v47q0 8 5 13t13 5h38q8 0 13 -5t5 -13v-581q0 -37 -11 -69.5t-34 -56.5t-54.5 -37t-68.5 -13q-35 0 -66 13t-54 35.5
t-36.5 53t-13.5 66.5v7q0 8 5 13t13 5h36q8 0 13 -5t5 -13v-7q0 -45 24.5 -73t69.5 -28q23 0 43 7t32 21q14 16 18.5 37t4.5 44v146zM315 360q0 16 -4 37.5t-15 40.5t-30.5 32t-50.5 13q-30 0 -48.5 -11.5t-29 -29.5t-14 -39.5t-3.5 -42.5v-168q0 -21 3.5 -42.5t14 -39.5
t29 -29.5t48.5 -11.5q31 0 50.5 13t30.5 32t15 40.5t4 37.5v168z" />
    <glyph glyph-name="h" unicode="h" horiz-adv-x="452" 
d="M131 18q0 -8 -5 -13t-13 -5h-38q-8 0 -13 5t-5 13v673q0 8 5 13t13 5h38q8 0 13 -5t5 -13v-221q17 33 49.5 57t82.5 24q25 0 50 -11t44.5 -32t31.5 -52.5t12 -72.5v-365q0 -8 -5 -13t-13 -5h-39q-8 0 -13 5t-5 13v342q0 21 -3.5 42.5t-14 39.5t-29 29.5t-48.5 11.5
q-31 0 -50.5 -13t-30.5 -32t-15 -40.5t-4 -37.5v-342z" />
    <glyph glyph-name="i" unicode="i" horiz-adv-x="208" 
d="M67 517q0 8 5 13t13 5h38q8 0 13 -5t5 -13v-499q0 -8 -5 -13t-13 -5h-38q-8 0 -13 5t-5 13v499zM61 691q0 8 5 13t13 5h50q8 0 13 -5t5 -13v-48q0 -8 -5 -13t-13 -5h-50q-8 0 -13 5t-5 13v48z" />
    <glyph glyph-name="j" unicode="j" horiz-adv-x="193" 
d="M-12 -114q26 0 41 6t22.5 18t9 30t1.5 41v536q0 8 5 13t13 5h38q8 0 13 -5t5 -13v-576q0 -27 -10.5 -50t-27.5 -39.5t-39 -26t-45 -9.5h-36q-8 0 -13 5t-5 13v34q0 8 5 13t13 5h10zM56 691q0 8 5 13t13 5h50q8 0 13 -5t5 -13v-48q0 -8 -5 -13t-13 -5h-50q-8 0 -13 5
t-5 13v48z" />
    <glyph glyph-name="k" unicode="k" horiz-adv-x="430" 
d="M53 691q0 8 5 13t13 5h38q8 0 13 -5t5 -13v-376l179 190q6 8 11 12t14 4h41q8 0 14 -3.5t6 -10.5q0 -3 -1 -7t-3 -7l-187 -200l212 -262q5 -7 5 -12q0 -8 -7 -13.5t-17 -5.5h-40q-9 0 -16 7t-12 14l-199 250v-253q0 -8 -5 -13t-13 -5h-38q-8 0 -13 5t-5 13v673z" />
    <glyph glyph-name="l" unicode="l" horiz-adv-x="196" 
d="M135 18q0 -8 -5 -13t-13 -5h-38q-8 0 -13 5t-5 13v673q0 8 5 13t13 5h38q8 0 13 -5t5 -13v-673z" />
    <glyph glyph-name="m" unicode="m" horiz-adv-x="706" 
d="M131 470q17 33 48 57t81 24q35 0 69 -20.5t54 -60.5q17 33 51 57t84 24q25 0 50 -11t44 -32t31 -52.5t12 -72.5v-365q0 -8 -5 -13t-13 -5h-39q-8 0 -13 5t-5 13v342q0 21 -3 42.5t-12.5 39.5t-27.5 29.5t-48 11.5q-31 0 -49.5 -13t-28 -32t-12 -40.5t-2.5 -37.5v-342
q0 -8 -5 -13t-13 -5h-39q-8 0 -13 5t-5 13v342q0 21 -3.5 42.5t-13.5 39.5t-28.5 29.5t-48.5 11.5q-31 0 -50 -13t-29.5 -32t-14 -40.5t-3.5 -37.5v-342q0 -8 -5 -13t-13 -5h-38q-8 0 -13 5t-5 13v499q0 8 5 13t13 5h38q8 0 13 -5t5 -13v-47z" />
    <glyph glyph-name="n" unicode="n" horiz-adv-x="452" 
d="M131 18q0 -8 -5 -13t-13 -5h-38q-8 0 -13 5t-5 13v499q0 8 5 13t13 5h38q8 0 13 -5t5 -13v-47q17 33 49.5 57t82.5 24q25 0 50 -11t44.5 -32t31.5 -52.5t12 -72.5v-365q0 -8 -5 -13t-13 -5h-39q-8 0 -13 5t-5 13v342q0 21 -3.5 42.5t-14 39.5t-29 29.5t-48.5 11.5
q-31 0 -50.5 -13t-30.5 -32t-15 -40.5t-4 -37.5v-342z" />
    <glyph glyph-name="o" unicode="o" horiz-adv-x="454" 
d="M227 -15q-39 0 -71.5 14t-56.5 38t-37.5 55t-13.5 65v221q0 34 13.5 65t37.5 55t56.5 38t71.5 14t71.5 -14t56.5 -38t37.5 -55t13.5 -65v-221q0 -34 -13.5 -65t-37.5 -55t-56.5 -38t-71.5 -14zM227 483q-22 0 -41 -8.5t-33 -22.5t-22 -33.5t-8 -40.5v-221q0 -21 8 -40.5
t22 -33.5t33 -22.5t41 -8.5t41 8.5t33 22.5t22 33.5t8 40.5v221q0 21 -8 40.5t-22 33.5t-33 22.5t-41 8.5z" />
    <glyph glyph-name="p" unicode="p" horiz-adv-x="449" 
d="M399 152q0 -41 -12 -72.5t-31.5 -52.5t-44.5 -32t-50 -11q-50 0 -82.5 24t-49.5 57v-231q0 -8 -5 -13t-13 -5h-38q-8 0 -13 5t-5 13v683q0 8 5 13t13 5h38q8 0 13 -5t5 -13v-47q17 33 49.5 57t82.5 24q25 0 50 -11t44.5 -32t31.5 -52.5t12 -72.5v-231zM129 175
q0 -16 4 -37.5t15 -40.5t30.5 -32t50.5 -13q30 0 48.5 11.5t29 29.5t14 39.5t3.5 42.5v185q0 21 -3.5 42.5t-14 39.5t-29 29.5t-48.5 11.5q-31 0 -50.5 -13t-30.5 -32t-15 -40.5t-4 -37.5v-185z" />
    <glyph glyph-name="q" unicode="q" horiz-adv-x="444" 
d="M45 383q0 41 12 72.5t31.5 52.5t44 32t50.5 11q50 0 82.5 -24t49.5 -57v47q0 8 5 13t13 5h38q8 0 13 -5t5 -13v-683q0 -8 -5 -13t-13 -5h-38q-8 0 -13 5t-5 13v231q-17 -33 -49.5 -57t-82.5 -24q-26 0 -50.5 11t-44 32t-31.5 52.5t-12 72.5v231zM315 360q0 16 -4 37.5
t-15 40.5t-30.5 32t-50.5 13q-30 0 -48.5 -11.5t-29 -29.5t-14 -39.5t-3.5 -42.5v-185q0 -21 3.5 -42.5t14 -39.5t29 -29.5t48.5 -11.5q31 0 50.5 13t30.5 32t15 40.5t4 37.5v185z" />
    <glyph glyph-name="r" unicode="r" horiz-adv-x="385" 
d="M368 386q0 -8 -5 -13t-13 -5h-38q-8 0 -13 5t-5 13v10q0 38 -16.5 62.5t-61.5 24.5t-66 -26t-21 -61v-378q0 -8 -5 -13t-13 -5h-38q-8 0 -13 5t-5 13v499q0 8 5 13t13 5h38q8 0 13 -5t5 -13v-40q23 34 54.5 54t76.5 20q24 0 43.5 -9.5t34 -26t22.5 -37.5t8 -45v-47z" />
    <glyph glyph-name="s" unicode="s" horiz-adv-x="426" 
d="M316 262q31 -16 51.5 -43.5t20.5 -75.5q0 -30 -11.5 -58.5t-33.5 -50.5t-54.5 -35.5t-74.5 -13.5t-75 13.5t-56 36t-35 53t-12 64.5v6q0 8 5 13t13 5h36q8 0 13 -5t5 -13v-4q0 -48 28 -75t78 -27q28 0 48 8t33 20.5t19 28t6 30.5q0 22 -10 37t-39 29l-147 74
q-80 40 -80 123q0 69 46 108.5t119 39.5q34 0 65 -9.5t55 -27.5t38.5 -45t16.5 -61v-11q0 -5 -2 -10q-2 -6 -5 -12t-11 -6h-34q-8 0 -13 5t-5 13v4q0 29 -10 47t-25 28.5t-33.5 14t-35.5 3.5q-19 0 -37 -4.5t-31.5 -13.5t-22 -23.5t-8.5 -34.5q0 -23 11.5 -38.5t35.5 -27.5z
" />
    <glyph glyph-name="t" unicode="t" horiz-adv-x="275" 
d="M240 69q8 0 13 -5t5 -13v-33q0 -8 -5 -13t-13 -5h-56q-59 0 -94.5 34.5t-35.5 93.5v563q0 8 5 13t13 5h38q8 0 13 -5t5 -13v-174h112q8 0 13 -5t5 -13v-33q0 -8 -5 -13t-13 -5h-112v-287q0 -24 1.5 -41.5t9.5 -29t24 -16.5t45 -5h32z" />
    <glyph glyph-name="u" unicode="u" horiz-adv-x="452" 
d="M321 517q0 8 5 13t13 5h38q8 0 13 -5t5 -13v-499q0 -8 -5 -13t-13 -5h-38q-8 0 -13 5t-5 13v47q-17 -33 -44 -57t-74 -24q-29 0 -56.5 11t-48.5 32t-34 52.5t-13 72.5v365q0 8 5 13t13 5h39q8 0 13 -5t5 -13v-342q0 -21 3.5 -42.5t13.5 -39.5t29 -29.5t49 -11.5
q31 0 50.5 13t30.5 32t15 40.5t4 37.5v342z" />
    <glyph glyph-name="v" unicode="v" horiz-adv-x="435" 
d="M188 0q-19 0 -26 22l-141 491q-1 3 -1 7q0 15 16 15h35q16 0 20 -16l127 -445l126 445q4 16 20 16h35q16 0 16 -15q0 -4 -1 -7l-140 -491q-7 -22 -26 -22h-60z" />
    <glyph glyph-name="w" unicode="w" horiz-adv-x="720" 
d="M394 535q16 0 21 -22l100 -456l109 456q5 22 19 22h33q7 0 13 -4t6 -12q0 -4 -1 -7l-117 -490q-5 -22 -21 -22h-77q-18 0 -21 22l-98 449l-98 -449q-3 -22 -21 -22h-77q-16 0 -21 22l-117 490q-1 3 -1 7q0 8 6 12t13 4h33q14 0 19 -22l109 -456l100 456q5 22 21 22h68z
" />
    <glyph glyph-name="x" unicode="x" horiz-adv-x="414" 
d="M92 16q-5 -9 -8.5 -12.5t-11.5 -3.5h-42q-7 0 -12 5t-5 12q0 2 0.5 3.5t0.5 2.5l140 261l-116 228q-2 2 -2 6q0 8 5 12.5t12 4.5h38q8 0 12 -3.5t8 -11.5l96 -185l96 185q4 8 8 11.5t12 3.5h38q7 0 12 -4.5t5 -12.5q0 -4 -2 -6l-116 -228l140 -261q0 -1 0.5 -2.5
t0.5 -3.5q0 -7 -5 -12t-12 -5h-42q-8 0 -11.5 3.5t-8.5 12.5l-115 214z" />
    <glyph glyph-name="y" unicode="y" horiz-adv-x="461" 
d="M104 -184q-8 0 -13 5t-5 13v33q0 8 5 13t13 5h45q29 0 41 9.5t12 26.5q0 8 -2 17.5t-5 20.5l-168 554q-1 3 -1 6q0 16 15 16h42q15 0 19 -16l135 -470l123 470q4 16 19 16h41q15 0 15 -16q0 -3 -1 -6l-166 -607q-8 -30 -20.5 -48t-28.5 -27.5t-34.5 -12t-38.5 -2.5h-42z
" />
    <glyph glyph-name="z" unicode="z" horiz-adv-x="426" 
d="M370 535q8 0 13 -5t5 -13v-30q0 -17 -1 -24t-8 -15l-264 -379h260q8 0 13 -5t5 -13v-33q0 -8 -5 -13t-13 -5h-324q-8 0 -13 5t-5 13v30q0 17 1 24t8 15l264 379h-237q-8 0 -13 5t-5 13v33q0 8 5 13t13 5h301z" />
    <glyph glyph-name="braceleft" unicode="{" horiz-adv-x="386" 
d="M316 665q-47 0 -62.5 -17.5t-15.5 -65.5v-194q0 -25 -3.5 -47t-12.5 -39.5t-24 -29t-38 -15.5q23 -5 38 -16t24 -29t12.5 -40t3.5 -47v-192q0 -48 15.5 -65.5t62.5 -17.5q8 0 13 -5t5 -13v-29q0 -8 -5 -13t-13 -5h-25q-26 0 -47.5 9t-38 25t-25.5 38t-9 48v232
q0 26 -5 41t-14.5 22.5t-23 9.5t-30.5 2h-18q-8 0 -13 5t-5 13v54q0 8 5 13t13 5h18q17 0 30.5 2t23 9.5t14.5 22.5t5 41v233q0 26 9 48t25.5 38t38 25t47.5 9h25q8 0 13 -5t5 -13v-29q0 -8 -5 -13t-13 -5z" />
    <glyph glyph-name="bar" unicode="|" horiz-adv-x="184" 
d="M129 -58q0 -8 -5 -13t-13 -5h-38q-8 0 -13 5t-5 13v749q0 8 5 13t13 5h38q8 0 13 -5t5 -13v-749z" />
    <glyph glyph-name="braceright" unicode="}" horiz-adv-x="386" 
d="M70 665q-8 0 -13 5t-5 13v29q0 8 5 13t13 5h25q25 0 47 -9t38.5 -25t25.5 -38t9 -48v-233q0 -26 5 -41t14.5 -22.5t23 -9.5t30.5 -2h18q8 0 13 -5t5 -13v-54q0 -8 -5 -13t-13 -5h-18q-17 0 -30.5 -2t-23 -9.5t-14.5 -22.5t-5 -41v-232q0 -26 -9 -48t-25.5 -38t-38.5 -25
t-47 -9h-25q-8 0 -13 5t-5 13v29q0 8 5 13t13 5q47 0 62.5 17.5t15.5 65.5v192q0 25 3.5 47t12.5 40t24 29q14 11 37 16q-23 4 -37 15q-15 12 -24 29.5t-12.5 39.5t-3.5 47v194q0 48 -15.5 65.5t-62.5 17.5z" />
    <glyph glyph-name="asciitilde" unicode="~" 
d="M420 312q2 0 7.5 -6t11 -13.5t9.5 -14.5t4 -8q0 -6 -8 -14q-5 -4 -15 -11t-23.5 -13.5t-29.5 -11t-32 -4.5q-19 0 -32.5 6t-26 12.5t-25.5 12.5t-31 6q-20 0 -40 -10.5t-28 -15.5q-5 -4 -9 -4q-5 0 -10 6t-16 23q-5 8 -5 13q0 7 8 15q5 4 15 11t23 13.5t29 11t33 4.5
q19 0 32.5 -6t25.5 -12.5t25 -12.5t32 -6q10 0 20 3t19.5 7.5t17 8.5t11.5 7t8 3z" />
    <glyph glyph-name="Zcaron" horiz-adv-x="501" 
d="M440 709q8 0 13 -5t5 -13v-34q0 -12 -0.5 -21.5t-4.5 -15.5l-333 -548h328q8 0 13 -5t5 -13v-36q0 -8 -5 -13t-13 -5h-395q-8 0 -13 5t-5 13v34q0 12 0.5 21.5t4.5 15.5l333 548h-296q-8 0 -13 5t-5 13v36q0 8 5 13t13 5h363zM241 766q-8 0 -12 5.5t-9 11.5l-80 108
q-2 6 -2 9q0 12 14 12h26q7 0 12 -4.5t10 -11.5l58 -67l58 67q5 7 10 11.5t12 4.5h26q14 0 14 -12q0 -3 -2 -9l-80 -108q-5 -6 -9 -11.5t-12 -5.5h-34z" />
    <glyph glyph-name="Zcaron" unicode="&#x17d;" horiz-adv-x="501" 
d="M440 709q8 0 13 -5t5 -13v-34q0 -12 -0.5 -21.5t-4.5 -15.5l-333 -548h328q8 0 13 -5t5 -13v-36q0 -8 -5 -13t-13 -5h-395q-8 0 -13 5t-5 13v34q0 12 0.5 21.5t4.5 15.5l333 548h-296q-8 0 -13 5t-5 13v36q0 8 5 13t13 5h363zM241 766q-8 0 -12 5.5t-9 11.5l-80 108
q-2 6 -2 9q0 12 14 12h26q7 0 12 -4.5t10 -11.5l58 -67l58 67q5 7 10 11.5t12 4.5h26q14 0 14 -12q0 -3 -2 -9l-80 -108q-5 -6 -9 -11.5t-12 -5.5h-34z" />
    <glyph glyph-name="zcaron" horiz-adv-x="426" 
d="M370 535q8 0 13 -5t5 -13v-30q0 -17 -1 -24t-8 -15l-264 -379h260q8 0 13 -5t5 -13v-33q0 -8 -5 -13t-13 -5h-324q-8 0 -13 5t-5 13v30q0 17 1 24t8 15l264 379h-237q-8 0 -13 5t-5 13v33q0 8 5 13t13 5h301zM209 598q-8 0 -12 5.5t-9 11.5l-80 108q-2 6 -2 9q0 12 14 12
h26q7 0 12 -4.5t10 -11.5l58 -67l58 67q5 7 10 11.5t12 4.5h26q14 0 14 -12q0 -3 -2 -9l-80 -108q-5 -6 -9 -11.5t-12 -5.5h-34z" />
    <glyph glyph-name="zcaron" unicode="&#x17e;" horiz-adv-x="426" 
d="M370 535q8 0 13 -5t5 -13v-30q0 -17 -1 -24t-8 -15l-264 -379h260q8 0 13 -5t5 -13v-33q0 -8 -5 -13t-13 -5h-324q-8 0 -13 5t-5 13v30q0 17 1 24t8 15l264 379h-237q-8 0 -13 5t-5 13v33q0 8 5 13t13 5h301zM209 598q-8 0 -12 5.5t-9 11.5l-80 108q-2 6 -2 9q0 12 14 12
h26q7 0 12 -4.5t10 -11.5l58 -67l58 67q5 7 10 11.5t12 4.5h26q14 0 14 -12q0 -3 -2 -9l-80 -108q-5 -6 -9 -11.5t-12 -5.5h-34z" />
    <glyph glyph-name="uni00A0" unicode="&#xa0;" horiz-adv-x="178" 
 />
    <glyph glyph-name="exclamdown" unicode="&#xa1;" horiz-adv-x="261" 
d="M175 18q0 -8 -5 -13t-13 -5h-52q-8 0 -13 5t-5 13v167q0 13 1 33.5t2.5 44.5t4 50t4.5 52q5 60 12 127q2 18 20 18t20 -18q7 -67 12 -127q2 -26 4.5 -52t4 -50t2.5 -44.5t1 -33.5v-167zM85 692q0 8 5 13t13 5h55q8 0 13 -5t5 -13v-46q0 -8 -5 -13t-13 -5h-55q-8 0 -13 5
t-5 13v46z" />
    <glyph glyph-name="cent" unicode="&#xa2;" horiz-adv-x="556" 
d="M100 378q0 34 13 65t36.5 55t56 38t71.5 14q23 0 40 -4l20 74q3 11 15 13q6 0 10 -1l17 -4q14 -4 14 -14q0 -3 -1 -7l-22 -82q39 -23 62 -62.5t23 -84.5v-5q0 -8 -5 -13t-13 -5h-39q-8 0 -13 5t-5 13v5q0 44 -30 74l-105 -395q8 -3 16 -4t16 -1q22 0 41 8.5t32.5 22.5
t21.5 33.5t8 40.5v10q0 8 5 13t13 5h39q8 0 13 -5t5 -13v-10q0 -34 -13 -65t-37 -55t-56.5 -38t-71.5 -14q-28 0 -50 7l-21 -82q-4 -13 -14 -13q-2 0 -10 2l-17 4q-6 2 -10.5 5.5t-4.5 9.5q0 2 1 6.5t2 7.5l22 83q-35 24 -55 61.5t-20 80.5v221zM277 483q-22 0 -40.5 -8.5
t-32 -22.5t-21.5 -33.5t-8 -40.5v-221q0 -38 21 -65l104 388q-12 3 -23 3z" />
    <glyph glyph-name="sterling" unicode="&#xa3;" horiz-adv-x="556" 
d="M420 550q0 51 -27 78.5t-78 27.5q-52 0 -80.5 -27.5t-28.5 -84.5v-151h168q8 0 13 -5t5 -13v-36q0 -8 -5 -13t-13 -5h-168v-249h284q8 0 13 -5t5 -13v-36q0 -8 -5 -13t-13 -5h-424q-8 0 -13 5t-5 13v36q0 8 5 13t13 5q23 0 35.5 4.5t18.5 14.5t7 26.5t1 39.5v164h-62
q-8 0 -13 5t-5 13v36q0 8 5 13t13 5h62v151q0 43 13.5 77.5t38.5 58.5t59.5 37t75.5 13q40 0 74 -12.5t58 -35.5t37.5 -56.5t13.5 -75.5v-4q0 -8 -5 -13t-13 -5h-42q-8 0 -13 5t-5 13v4z" />
    <glyph glyph-name="currency" unicode="&#xa4;" horiz-adv-x="656" 
d="M328 547q-41 0 -77 -15t-62.5 -41t-42 -61.5t-15.5 -76.5t15.5 -76.5t42 -62t62.5 -41.5t77 -15t77 15t62.5 41.5t42 62t15.5 76.5t-15.5 76.5t-42 61.5t-62.5 41t-77 15zM328 624q80 0 166 -54l61 60q6 6 13 6q10 0 16 -6l29 -27q7 -9 7 -15q0 -7 -7 -14l-61 -62
q23 -38 36.5 -78t13.5 -81q0 -42 -14.5 -83t-38.5 -81l59 -60q7 -7 7 -14q0 -6 -7 -15l-29 -27q-6 -6 -16 -6q-7 0 -13 6l-61 60q-81 -52 -161 -52t-161 52l-61 -60q-6 -6 -13 -6q-10 0 -16 6l-29 27q-7 9 -7 15q0 7 7 14l59 60q-24 40 -38.5 81t-14.5 83q0 41 13.5 81
t36.5 78l-61 62q-7 7 -7 14q0 6 7 15l29 27q6 6 16 6q7 0 13 -6l61 -60q86 54 166 54z" />
    <glyph glyph-name="yen" unicode="&#xa5;" horiz-adv-x="556" 
d="M318 259v-241q0 -8 -5 -13t-13 -5h-44q-8 0 -13 5t-5 13v241h-129q-8 0 -13 5t-5 13v36q0 8 5 13t13 5h129l-27 50h-102q-8 0 -13 5t-5 13v36q0 8 5 13t13 5h64l-124 233q-2 4 -2 7q0 16 17 16h41q9 0 14 -4t13 -19l146 -265l146 265q8 15 13 19t14 4h41q17 0 17 -16
q0 -3 -2 -7l-124 -233h65q8 0 13 -5t5 -13v-36q0 -8 -5 -13t-13 -5h-104l-26 -50h130q8 0 13 -5t5 -13v-36q0 -8 -5 -13t-13 -5h-130z" />
    <glyph glyph-name="brokenbar" unicode="&#xa6;" horiz-adv-x="277" 
d="M92 691q0 8 5 13t13 5h57q8 0 13 -5t5 -13v-244q0 -8 -5 -13.5t-13 -5.5h-57q-8 0 -13 5t-5 13v245zM92 263q0 8 5 13t13 5h57q8 0 13 -5t5 -13v-244q0 -8 -5 -13.5t-13 -5.5h-57q-8 0 -13 5t-5 13v245z" />
    <glyph glyph-name="section" unicode="&#xa7;" horiz-adv-x="483" 
d="M344 114q31 -29 44 -57t13 -62q0 -30 -11.5 -56.5t-33.5 -46t-54 -31t-72 -11.5q-36 0 -67.5 10.5t-54 29.5t-35.5 45t-13 57v3q0 11 11 11h50q5 0 8 -3.5t3 -7.5q2 -36 30.5 -53.5t67.5 -17.5q47 0 73.5 17.5t26.5 52.5q0 19 -8.5 35t-24.5 31t-39.5 31.5t-53.5 38.5
q-9 6 -19.5 13.5t-20.5 14.5t-18 13l-12 9q-39 32 -56.5 61t-17.5 66q0 48 18.5 84t59.5 75q-31 29 -43.5 57t-12.5 62q0 30 11.5 56.5t33.5 46t54 31t72 11.5q36 0 67.5 -10.5t54 -29.5t35.5 -45t13 -57v-3q0 -11 -11 -11h-50q-5 0 -8 3.5t-3 7.5q-2 36 -30.5 53.5
t-67.5 17.5q-47 0 -73.5 -17.5t-26.5 -52.5q0 -20 8.5 -35.5t24.5 -30.5t39.5 -31.5t53.5 -38.5l70 -50q43 -29 58.5 -60.5t15.5 -64.5q0 -48 -19 -85.5t-60 -75.5zM288 157q11 9 21 19.5t18 21.5q17 23 21.5 39.5t4.5 29.5q0 22 -11 40t-38 38l-109 78q-11 -9 -21 -19.5
t-18 -21.5q-17 -23 -21.5 -39.5t-4.5 -29.5q0 -22 11 -40t38 -38z" />
    <glyph glyph-name="dieresis" unicode="&#xa8;" horiz-adv-x="503" 
d="M220 642q0 -8 -5 -13t-13 -5h-60q-8 0 -13 5t-5 13v49q0 8 5 13t13 5h60q8 0 13 -5t5 -13v-49zM379 642q0 -8 -5 -13t-13 -5h-60q-8 0 -13 5t-5 13v49q0 8 5 13t13 5h60q8 0 13 -5t5 -13v-49z" />
    <glyph glyph-name="copyright" unicode="&#xa9;" horiz-adv-x="859" 
d="M581 232q0 -30 -12.5 -54t-33.5 -41t-47.5 -26t-54.5 -9t-54.5 10t-47 27.5t-33 42t-12.5 54.5v238q0 30 12.5 54.5t33 42.5t47 28t54.5 10t54.5 -9.5t47.5 -26.5t33.5 -41t12.5 -54v-5q0 -8 -5.5 -14t-14.5 -6h-25q-8 0 -14 6t-6 14v5q0 16 -7.5 29t-19 22t-26.5 14
t-30 5t-29.5 -5.5t-26.5 -15.5t-19 -23.5t-7 -29.5v-238q0 -15 7 -28.5t19 -23.5t26.5 -15.5t29.5 -5.5t30 5t26.5 14t19 22t7.5 28v6q0 8 6 14.5t14 6.5h25q9 0 14.5 -6.5t5.5 -14.5v-6zM799 353q0 -77 -29 -144t-79 -117.5t-117 -79.5t-143 -29q-77 0 -144.5 29t-118 79.5
t-79.5 117.5t-29 144q0 76 29 143t79.5 117.5t118 79.5t144.5 29q76 0 143 -29t117 -79.5t79 -117.5t29 -143zM760 353q0 69 -26 129t-70.5 104.5t-104.5 70t-128 25.5q-69 0 -129.5 -25.5t-105 -70t-70.5 -104.5t-26 -129t26 -129t70.5 -105t105 -70.5t129.5 -25.5
q68 0 128 25.5t104.5 70.5t70.5 105t26 129z" />
    <glyph glyph-name="ordfeminine" unicode="&#xaa;" horiz-adv-x="323" 
d="M223 541q-40 -17 -65 -28t-38.5 -20t-18 -18.5t-4.5 -23.5q0 -9 2 -17.5t7.5 -16t15.5 -12t26 -4.5q28 0 51.5 22t23.5 56v62zM285 376q0 -3 -3.5 -10.5t-14.5 -7.5h-27q-7 0 -12 5t-5 13v24q-14 -23 -34 -36.5t-55 -13.5q-55 0 -78.5 29t-23.5 72q0 41 24.5 63.5
t70.5 42.5q17 7 34 14.5t36 16.5q14 7 20 12t6 18q0 29 -15 41t-45 12q-19 0 -30 -7t-16 -16t-6.5 -17.5t-1.5 -12.5q0 -3 -3.5 -10.5t-14.5 -7.5h-27q-7 0 -12 5t-5 13q0 22 7.5 42.5t22.5 36t36.5 24.5t49.5 9q57 0 89.5 -30t32.5 -82v-242z" />
    <glyph glyph-name="guillemotleft" unicode="&#xab;" horiz-adv-x="540" 
d="M127 261l122 -112l14 -14q6 -6 6 -16v-41q0 -7 -5.5 -12t-11.5 -5q-3 0 -8 1.5t-9 4.5l-166 156q-5 5 -9.5 10t-4.5 14v28q0 9 4.5 14t9.5 10l166 156q4 3 9 4.5t8 1.5q6 0 11.5 -5t5.5 -12v-41q0 -10 -6 -16l-14 -14zM328 261l122 -112l14 -14q6 -6 6 -16v-41
q0 -7 -5.5 -12t-11.5 -5q-3 0 -8 1.5t-9 4.5l-166 156q-5 5 -9.5 10t-4.5 14v28q0 9 4.5 14t9.5 10l166 156q4 3 9 4.5t8 1.5q6 0 11.5 -5t5.5 -12v-41q0 -10 -6 -16l-14 -14z" />
    <glyph glyph-name="logicalnot" unicode="&#xac;" 
d="M417 291h-321q-8 0 -13 5t-5 13v36q0 8 5 13t13 5h381q8 0 13 -5t5 -13v-163q0 -8 -5 -13t-13 -5h-42q-8 0 -13 5t-5 13v109z" />
    <glyph glyph-name="registered" unicode="&#xae;" horiz-adv-x="859" 
d="M358 547v-158h96q32 0 46.5 15t14.5 47v42q0 29 -14 41.5t-43 12.5h-100zM482 607q43 0 70 -28t27 -69v-71q0 -29 -8 -49.5t-31 -32.5q29 -13 35.5 -36t6.5 -53v-145q0 -8 -6 -14t-14 -6h-26q-8 0 -14.5 6t-6.5 14v153q0 28 -14 39t-44 11h-99v-203q0 -8 -5.5 -14
t-13.5 -6h-29q-9 0 -14.5 6t-5.5 14v464q0 8 5.5 14t14.5 6h172zM799 353q0 -77 -29 -144t-79 -117.5t-117 -79.5t-143 -29q-77 0 -144.5 29t-118 79.5t-79.5 117.5t-29 144q0 76 29 143t79.5 117.5t118 79.5t144.5 29q76 0 143 -29t117 -79.5t79 -117.5t29 -143zM760 353
q0 69 -26 129t-70.5 104.5t-104.5 70t-128 25.5q-69 0 -129.5 -25.5t-105 -70t-70.5 -104.5t-26 -129t26 -129t70.5 -105t105 -70.5t129.5 -25.5q68 0 128 25.5t104.5 70.5t70.5 105t26 129z" />
    <glyph glyph-name="macron" unicode="&#xaf;" horiz-adv-x="435" 
d="M357 695q8 0 13 -5t5 -13v-27q0 -8 -5 -13t-13 -5h-279q-8 0 -13 5t-5 13v27q0 8 5 13t13 5h279z" />
    <glyph glyph-name="degree" unicode="&#xb0;" horiz-adv-x="368" 
d="M323 589q0 -29 -11 -54t-30 -43.5t-44.5 -29t-53.5 -10.5q-29 0 -54 10.5t-44 29t-30 43.5t-11 54t11 54.5t30 44t44 29.5t54 11q28 0 53.5 -11t44.5 -29.5t30 -44t11 -54.5zM276 589q0 19 -7.5 35.5t-20 29t-29 19.5t-35.5 7q-18 0 -34.5 -7t-28.5 -19.5t-19 -29
t-7 -35.5q0 -38 26 -64t63 -26q38 0 65 26t27 64z" />
    <glyph glyph-name="plusminus" unicode="&#xb1;" 
d="M315 72h184q8 0 13 -5t5 -13v-36q0 -8 -5 -13t-13 -5h-436q-8 0 -13 5t-5 13v36q0 8 5 13t13 5h176v198h-176q-8 0 -13 5t-5 13v36q0 8 5 13t13 5h176v210q0 8 5 13t13 5h40q8 0 13 -5t5 -13v-210h184q8 0 13 -5t5 -13v-36q0 -8 -5 -13t-13 -5h-184v-198z" />
    <glyph glyph-name="twosuperior" unicode="&#xb2;" horiz-adv-x="333" 
d="M206 559q22 28 22 46q0 26 -16 42.5t-44 16.5q-25 0 -39 -16.5t-15 -42.5q0 -8 -5.5 -14t-13.5 -6h-23q-18 0 -18 22q0 21 7.5 41.5t22 36t35.5 25t49 9.5q52 0 85.5 -30.5t33.5 -87.5q0 -17 -7 -35t-19 -33l-144 -178h154q19 0 19 -19v-16q0 -19 -19 -19h-205
q-19 0 -19 19v20q0 13 2.5 19.5t6.5 11.5z" />
    <glyph glyph-name="threesuperior" unicode="&#xb3;" horiz-adv-x="338" 
d="M45 418q0 7 5 12.5t12 5.5h24q7 0 11.5 -5.5t4.5 -12.5v-4q0 -29 18.5 -48t48.5 -19t48 16.5t18 46.5v22q0 50 -46 50h-22q-8 0 -13 5t-5 12v25q0 8 5 13.5t13 5.5h19q22 0 31.5 12.5t9.5 34.5v6q0 32 -12 49t-46 17q-61 0 -61 -63q0 -8 -5 -11.5t-12 -3.5h-19
q-8 0 -13.5 5.5t-5.5 12.5q0 54 30 85.5t86 31.5q58 0 87.5 -31.5t29.5 -91.5q0 -26 -5 -44.5t-27 -38.5q28 -17 33.5 -42.5t5.5 -53.5v-9q0 -29 -10 -50.5t-27 -36.5t-39.5 -22.5t-47.5 -7.5t-47.5 8.5t-39.5 24t-27 38t-10 50.5v6z" />
    <glyph glyph-name="acute" unicode="&#xb4;" horiz-adv-x="313" 
d="M163 638q-7 -9 -12 -12.5t-16 -3.5h-24q-18 0 -18 16q0 6 3 11l31 70q4 8 11 14.5t16 6.5h49q7 0 12 -4.5t5 -10.5q0 -2 -2 -6z" />
    <glyph glyph-name="mu" unicode="&#xb5;" horiz-adv-x="481" 
d="M338 58q-15 -30 -46.5 -52t-73.5 -22q-37 0 -75 22v-172q0 -8 -5 -13t-13 -5h-36q-8 0 -13 5t-5 13v683q0 8 5 13t13 5h36q8 0 13 -5t5 -13v-363q0 -45 27 -73.5t72 -28.5q21 0 39 8.5t30.5 23t19.5 32.5t7 38v363q0 8 5 13t13 5h36q8 0 13 -5t5 -13v-499q0 -8 -5 -13
t-13 -5h-36q-8 0 -13 5t-5 13v40z" />
    <glyph glyph-name="paragraph" unicode="&#xb6;" horiz-adv-x="518" 
d="M435 709q8 0 13 -5t5 -13v-743q0 -8 -5 -13t-13 -5h-38q-8 0 -13 5t-5 13v673h-63v-673q0 -8 -5 -13t-13 -5h-38q-8 0 -13 5t-5 13v412h-48q-26 0 -50 9.5t-43 27t-30 41.5t-11 53v88q0 29 11 53t30 41t43 26.5t50 9.5h241z" />
    <glyph glyph-name="periodcentered" unicode="&#xb7;" horiz-adv-x="197" 
d="M152 243q0 -8 -6.5 -14.5t-15.5 -6.5h-63q-9 0 -15.5 6.5t-6.5 14.5v51q0 9 6.5 15t15.5 6h63q9 0 15.5 -6t6.5 -15v-51z" />
    <glyph glyph-name="cedilla" unicode="&#xb8;" horiz-adv-x="313" 
d="M150 -174q19 0 27 13t8 29q0 26 -13 33.5t-24 7.5q-5 0 -8 -1q-11 -4 -14 -8.5t-12 -4.5h-4q-2 0 -7 2l-15 4q-10 3 -10 13v4q0 1 2 6l30 99q3 10 15 10q3 0 5 -1l14 -5q5 -1 8 -5t3 -9q0 -3 -1 -5l-18 -60q10 4 14.5 5t14.5 1t24.5 -4.5t27.5 -14.5t22 -26.5t9 -40.5
q0 -15 -5 -31.5t-17 -30.5t-31.5 -23t-47.5 -9q-18 0 -38 8t-34 19q-4 2 -7 6t-3 7q0 2 0.5 5.5t4.5 7.5l13 13q7 7 12 7q3 0 9 -4q23 -17 46 -17z" />
    <glyph glyph-name="onesuperior" unicode="&#xb9;" horiz-adv-x="215" 
d="M62 607q-8 0 -12.5 5t-4.5 12v23q0 16 17 16h4q21 2 30 10t14 27q4 11 16 11h28q7 0 11.5 -5t4.5 -12v-377q0 -7 -4.5 -12t-11.5 -5h-25q-7 0 -11.5 5t-4.5 12v290h-51z" />
    <glyph glyph-name="ordmasculine" unicode="&#xba;" horiz-adv-x="317" 
d="M279 455q0 -23 -9.5 -43.5t-25.5 -36.5t-38 -25.5t-47 -9.5t-47 9.5t-38.5 25.5t-26 36.5t-9.5 43.5v161q0 22 9.5 43t26 37t38.5 25.5t47 9.5t47 -9.5t38 -25.5t25.5 -37t9.5 -43v-161zM218 610q0 23 -18 41t-41 18q-24 0 -41.5 -18t-17.5 -41v-149q0 -24 17.5 -41.5
t41.5 -17.5q23 0 41 17.5t18 41.5v149z" />
    <glyph glyph-name="guillemotright" unicode="&#xbb;" horiz-adv-x="540" 
d="M291 373l-14 14q-6 6 -6 16v41q0 7 5.5 12t11.5 5q3 0 8 -1.5t9 -4.5l166 -156q5 -5 9.5 -10t4.5 -14v-28q0 -9 -4.5 -14t-9.5 -10l-166 -156q-4 -3 -9 -4.5t-8 -1.5q-6 0 -11.5 5t-5.5 12v41q0 10 6 16l14 14l122 112zM90 373l-14 14q-6 6 -6 16v41q0 7 5.5 12t11.5 5
q3 0 8 -1.5t9 -4.5l166 -156q5 -5 9.5 -10t4.5 -14v-28q0 -9 -4.5 -14t-9.5 -10l-166 -156q-4 -3 -9 -4.5t-8 -1.5q-6 0 -11.5 5t-5.5 12v41q0 10 6 16l14 14l122 112z" />
    <glyph glyph-name="onequarter" unicode="&#xbc;" horiz-adv-x="702" 
d="M72 607q-8 0 -12.5 5t-4.5 12v23q0 16 17 16h4q21 2 30 10t14 27q4 11 16 11h28q7 0 11.5 -5t4.5 -12v-377q0 -7 -4.5 -12t-11.5 -5h-25q-7 0 -11.5 5t-4.5 12v290h-51zM500 718q0 -2 -2 -8l-270 -704q-5 -15 -10.5 -18t-13.5 -3h-30q-14 0 -14 14q0 2 2 8l270 704
q5 14 11 17t14 3h30q13 0 13 -13zM517 398q5 11 21 11h65q7 0 11.5 -5t4.5 -12v-235h26q7 0 12 -4.5t5 -11.5v-22q0 -7 -5 -11.5t-12 -4.5h-26v-86q0 -7 -4.5 -12t-11.5 -5h-25q-7 0 -11.5 5t-4.5 12v86h-144q-12 0 -12 13v24q0 8 5 21zM469 157h93v214z" />
    <glyph glyph-name="onehalf" unicode="&#xbd;" horiz-adv-x="724" 
d="M72 606q-8 0 -12.5 5t-4.5 12v23q0 16 17 16h4q21 2 30 10t14 27q4 11 16 11h28q7 0 11.5 -5t4.5 -12v-375q0 -7 -4.5 -12t-11.5 -5h-25q-7 0 -11.5 5t-4.5 12v288h-51zM505 718q0 -2 -2 -8l-270 -704q-5 -15 -10.5 -18t-13.5 -3h-30q-14 0 -14 14q0 2 2 8l270 704
q5 14 11 17t14 3h30q13 0 13 -13zM595 259q22 28 22 46q0 26 -16 42.5t-44 16.5q-25 0 -39 -16.5t-15 -42.5q0 -8 -5.5 -14t-13.5 -6h-23q-18 0 -18 22q0 21 7.5 41.5t22 36t35.5 25t49 9.5q52 0 85.5 -30.5t33.5 -87.5q0 -17 -7 -35t-19 -33l-144 -178h154q19 0 19 -19v-16
q0 -19 -19 -19h-205q-19 0 -19 19v20q0 13 2.5 19.5t6.5 11.5z" />
    <glyph glyph-name="threequarters" unicode="&#xbe;" horiz-adv-x="761" 
d="M580 718q0 -2 -2 -8l-270 -704q-5 -15 -10.5 -18t-13.5 -3h-30q-14 0 -14 14q0 2 2 8l270 704q5 14 11 17t14 3h30q13 0 13 -13zM53 418q0 7 5 12.5t12 5.5h24q7 0 11.5 -5.5t4.5 -12.5v-4q0 -29 18.5 -48t48.5 -19t48 16.5t18 46.5v22q0 50 -46 50h-22q-8 0 -13 5t-5 12
v25q0 8 5 13.5t13 5.5h19q22 0 31.5 12.5t9.5 34.5v6q0 32 -12 49t-46 17q-61 0 -61 -63q0 -8 -5 -11.5t-12 -3.5h-19q-8 0 -13.5 5.5t-5.5 12.5q0 54 30 85.5t86 31.5q58 0 87.5 -31.5t29.5 -91.5q0 -26 -5 -44.5t-27 -38.5q28 -17 33.5 -42.5t5.5 -53.5v-9
q0 -29 -10 -50.5t-27 -36.5t-39.5 -22.5t-47.5 -7.5t-47.5 8.5t-39.5 24t-27 38t-10 50.5v6zM576 398q5 11 21 11h65q7 0 11.5 -5t4.5 -12v-235h26q7 0 12 -4.5t5 -11.5v-22q0 -7 -5 -11.5t-12 -4.5h-26v-86q0 -7 -4.5 -12t-11.5 -5h-25q-7 0 -11.5 5t-4.5 12v86h-144
q-12 0 -12 13v24q0 8 5 21zM528 157h93v214z" />
    <glyph glyph-name="questiondown" unicode="&#xbf;" horiz-adv-x="478" 
d="M303 479q0 -23 -5 -45t-30 -50l-107 -121q-11 -13 -20.5 -28t-9.5 -41q0 -60 25 -90t82 -30q55 0 82 32t27 83v4q0 8 5 13t13 5h43q8 0 13 -5t5 -13v-12q0 -40 -14 -73t-39 -57t-59.5 -37.5t-74.5 -13.5q-38 0 -72 12t-59.5 35t-40.5 58t-15 81q0 9 1 21.5t4 27t9.5 29.5
t17.5 27l106 115q10 11 16 19t9 17t4 20.5t1 30.5v24q0 8 5 13t13 5h47q8 0 13 -5t5 -13v-38zM215 712q0 8 5 13t13 5h57q8 0 13 -5t5 -13v-57q0 -8 -5 -13t-13 -5h-57q-8 0 -13 5t-5 13v57z" />
    <glyph glyph-name="Agrave" unicode="&#xc0;" horiz-adv-x="528" 
d="M306 709q12 0 16 -14l180 -672q1 -5 1 -7q0 -7 -6 -11.5t-14 -4.5h-41q-7 0 -10.5 5t-5.5 12l-40 151h-244l-40 -151q-2 -7 -5.5 -12t-10.5 -5h-41q-8 0 -14 4.5t-6 11.5q0 3 1 7l180 672q3 14 16 14h84zM264 631l-103 -389h206zM188 872q-2 4 -2 6q0 6 5 10.5t12 4.5h49
q9 0 16 -6.5t11 -14.5l31 -70q3 -5 3 -11q0 -16 -18 -16h-24q-11 0 -16 3.5t-12 12.5z" />
    <glyph glyph-name="Aacute" unicode="&#xc1;" horiz-adv-x="528" 
d="M306 709q12 0 16 -14l180 -672q1 -5 1 -7q0 -7 -6 -11.5t-14 -4.5h-41q-7 0 -10.5 5t-5.5 12l-40 151h-244l-40 -151q-2 -7 -5.5 -12t-10.5 -5h-41q-8 0 -14 4.5t-6 11.5q0 3 1 7l180 672q3 14 16 14h84zM264 631l-103 -389h206zM273 793q-7 -9 -12 -12.5t-16 -3.5h-24
q-18 0 -18 16q0 6 3 11l31 70q4 8 11 14.5t16 6.5h49q7 0 12 -4.5t5 -10.5q0 -2 -2 -6z" />
    <glyph glyph-name="Acircumflex" unicode="&#xc2;" horiz-adv-x="528" 
d="M306 709q12 0 16 -14l180 -672q1 -5 1 -7q0 -7 -6 -11.5t-14 -4.5h-41q-7 0 -10.5 5t-5.5 12l-40 151h-244l-40 -151q-2 -7 -5.5 -12t-10.5 -5h-41q-8 0 -14 4.5t-6 11.5q0 3 1 7l180 672q3 14 16 14h84zM264 631l-103 -389h206zM287 895q10 0 14 -5t9 -11l62 -93
q3 -5 3 -9q0 -7 -12 -7h-42q-8 0 -15 9l-42 53l-42 -53q-4 -5 -7 -7t-8 -2h-42q-12 0 -12 7q0 4 3 9l62 93q5 6 9 11t14 5h46z" />
    <glyph glyph-name="Atilde" unicode="&#xc3;" horiz-adv-x="528" 
d="M306 709q12 0 16 -14l180 -672q1 -5 1 -7q0 -7 -6 -11.5t-14 -4.5h-41q-7 0 -10.5 5t-5.5 12l-40 151h-244l-40 -151q-2 -7 -5.5 -12t-10.5 -5h-41q-8 0 -14 4.5t-6 11.5q0 3 1 7l180 672q3 14 16 14h84zM264 631l-103 -389h206zM259 801q-10 5 -21 9.5t-27 4.5
q-17 0 -31 -9t-20 -12q-3 -3 -9 -3q-4 0 -9.5 5t-21.5 31q-4 6 -4 9q0 5 11 11q4 3 12.5 8t19.5 10t24.5 8.5t27.5 3.5q16 0 27.5 -4.5t22.5 -9.5t22.5 -9.5t27.5 -4.5t30.5 9.5t20.5 13.5q2 1 4.5 2t4.5 1q4 0 9 -5.5t22 -30.5q3 -4 3 -9q0 -4 -2.5 -5.5t-7.5 -6.5
q-3 -3 -11.5 -8t-20 -10.5t-25 -9t-27.5 -3.5q-17 0 -29 4.5t-23 9.5z" />
    <glyph glyph-name="Adieresis" unicode="&#xc4;" horiz-adv-x="528" 
d="M306 709q12 0 16 -14l180 -672q1 -5 1 -7q0 -7 -6 -11.5t-14 -4.5h-41q-7 0 -10.5 5t-5.5 12l-40 151h-244l-40 -151q-2 -7 -5.5 -12t-10.5 -5h-41q-8 0 -14 4.5t-6 11.5q0 3 1 7l180 672q3 14 16 14h84zM264 631l-103 -389h206zM234 809q0 -8 -5 -13t-13 -5h-60
q-8 0 -13 5t-5 13v49q0 8 5 13t13 5h60q8 0 13 -5t5 -13v-49zM393 809q0 -8 -5 -13t-13 -5h-60q-8 0 -13 5t-5 13v49q0 8 5 13t13 5h60q8 0 13 -5t5 -13v-49z" />
    <glyph glyph-name="Aring" unicode="&#xc5;" horiz-adv-x="528" 
d="M25 16q0 3 1 7l179 669q-20 14 -32 36t-12 48q0 20 8.5 38.5t22.5 32.5t32.5 22t38.5 8q21 0 39.5 -8t33 -22t22.5 -32.5t8 -38.5q0 -26 -12 -48t-31 -36l179 -669q1 -5 1 -7q0 -7 -6 -11.5t-14 -4.5h-41q-7 0 -10.5 5t-5.5 12l-40 151h-244l-40 -151q-2 -7 -5.5 -12
t-10.5 -5h-41q-8 0 -14 4.5t-6 11.5zM264 631l-103 -389h206zM326 776q0 21 -17 41.5t-46 20.5t-45 -20.5t-16 -41.5q0 -22 16 -43t45 -21q15 0 26.5 6t19.5 15t12.5 20.5t4.5 22.5z" />
    <glyph glyph-name="AE" unicode="&#xc6;" horiz-adv-x="728" 
d="M347 637l-155 -396h155v396zM675 72q8 0 13 -5t5 -13v-36q0 -8 -5 -13t-13 -5h-306q-9 0 -15.5 6.5t-6.5 15.5v145h-184l-57 -146q-8 -21 -25 -21h-38q-8 0 -13.5 4.5t-5.5 12.5q0 2 2 6l271 674q5 12 18 12h356q8 0 13 -5t5 -13v-36q0 -8 -5 -13t-13 -5h-246v-221h204
q8 0 13 -5t5 -13v-36q0 -8 -5 -13t-13 -5h-204v-272h250z" />
    <glyph glyph-name="Ccedilla" unicode="&#xc7;" horiz-adv-x="495" 
d="M448 524q0 -8 -5 -13t-13 -5h-46q-8 0 -13 5t-5 13v11q0 54 -31 87.5t-83 33.5t-83 -33.5t-31 -87.5v-363q0 -54 31 -87t83 -33t83 33t31 87v13q0 8 5 13t13 5h46q8 0 13 -5t5 -13v-13q0 -44 -15 -79t-40.5 -60.5t-60.5 -39.5t-75 -15l-9 -30q10 4 14.5 5t14.5 1
t24.5 -4.5t27.5 -14.5t22 -26.5t9 -40.5q0 -15 -5 -31.5t-17 -30.5t-31.5 -23t-47.5 -9q-18 0 -38 8t-34 19q-4 2 -7 6t-3 7q0 2 0.5 5.5t4.5 7.5l13 13q7 7 12 7q3 0 9 -4q23 -17 46 -17q19 0 27 13t8 29q0 25 -12.5 33t-23.5 8q-7 0 -9 -1q-11 -3 -14 -8t-12 -5
q-1 0 -5 0.5t-6 1.5l-15 4q-10 3 -10 13q0 3 1 6l18 62q-67 13 -110 62.5t-43 127.5v363q0 44 15 80t41.5 61.5t62.5 39.5t77 14t77 -14t62.5 -39.5t41.5 -61.5t15 -80v-11z" />
    <glyph glyph-name="Egrave" unicode="&#xc8;" horiz-adv-x="452" 
d="M141 637v-221h212q8 0 13 -5t5 -13v-36q0 -8 -5 -13t-13 -5h-212v-272h258q8 0 13 -5t5 -13v-36q0 -8 -5 -13t-13 -5h-320q-8 0 -13 5t-5 13v673q0 8 5 13t13 5h316q8 0 13 -5t5 -13v-36q0 -8 -5 -13t-13 -5h-254zM161 871q-2 4 -2 6q0 6 5 10.5t12 4.5h49q9 0 16 -6.5
t11 -14.5l31 -70q3 -5 3 -11q0 -16 -18 -16h-24q-11 0 -16 3.5t-12 12.5z" />
    <glyph glyph-name="Eacute" unicode="&#xc9;" horiz-adv-x="452" 
d="M141 637v-221h212q8 0 13 -5t5 -13v-36q0 -8 -5 -13t-13 -5h-212v-272h258q8 0 13 -5t5 -13v-36q0 -8 -5 -13t-13 -5h-320q-8 0 -13 5t-5 13v673q0 8 5 13t13 5h316q8 0 13 -5t5 -13v-36q0 -8 -5 -13t-13 -5h-254zM251 790q-7 -9 -12 -12.5t-16 -3.5h-24q-18 0 -18 16
q0 6 3 11l31 70q4 8 11 14.5t16 6.5h49q7 0 12 -4.5t5 -10.5q0 -2 -2 -6z" />
    <glyph glyph-name="Ecircumflex" unicode="&#xca;" horiz-adv-x="452" 
d="M141 637v-221h212q8 0 13 -5t5 -13v-36q0 -8 -5 -13t-13 -5h-212v-272h258q8 0 13 -5t5 -13v-36q0 -8 -5 -13t-13 -5h-320q-8 0 -13 5t-5 13v673q0 8 5 13t13 5h316q8 0 13 -5t5 -13v-36q0 -8 -5 -13t-13 -5h-254zM252 902q10 0 14 -5t9 -11l62 -93q3 -5 3 -9
q0 -7 -12 -7h-42q-8 0 -15 9l-42 53l-42 -53q-4 -5 -7 -7t-8 -2h-42q-12 0 -12 7q0 4 3 9l62 93q5 6 9 11t14 5h46z" />
    <glyph glyph-name="Edieresis" unicode="&#xcb;" horiz-adv-x="452" 
d="M141 637v-221h212q8 0 13 -5t5 -13v-36q0 -8 -5 -13t-13 -5h-212v-272h258q8 0 13 -5t5 -13v-36q0 -8 -5 -13t-13 -5h-320q-8 0 -13 5t-5 13v673q0 8 5 13t13 5h316q8 0 13 -5t5 -13v-36q0 -8 -5 -13t-13 -5h-254zM203 808q0 -8 -5 -13t-13 -5h-60q-8 0 -13 5t-5 13v49
q0 8 5 13t13 5h60q8 0 13 -5t5 -13v-49zM362 808q0 -8 -5 -13t-13 -5h-60q-8 0 -13 5t-5 13v49q0 8 5 13t13 5h60q8 0 13 -5t5 -13v-49z" />
    <glyph glyph-name="Igrave" unicode="&#xcc;" horiz-adv-x="206" 
d="M140 18q0 -8 -5 -13t-13 -5h-44q-8 0 -13 5t-5 13v673q0 8 5 13t13 5h44q8 0 13 -5t5 -13v-673zM12 871q-2 4 -2 6q0 6 5 10.5t12 4.5h49q9 0 16 -6.5t11 -14.5l31 -70q3 -5 3 -11q0 -16 -18 -16h-24q-11 0 -16 3.5t-12 12.5z" />
    <glyph glyph-name="Iacute" unicode="&#xcd;" horiz-adv-x="213" 
d="M146 18q0 -8 -5 -13t-13 -5h-44q-8 0 -13 5t-5 13v673q0 8 5 13t13 5h44q8 0 13 -5t5 -13v-673zM146 790q-7 -9 -12 -12.5t-16 -3.5h-24q-18 0 -18 16q0 6 3 11l31 70q4 8 11 14.5t16 6.5h49q7 0 12 -4.5t5 -10.5q0 -2 -2 -6z" />
    <glyph glyph-name="Icircumflex" unicode="&#xce;" horiz-adv-x="242" 
d="M164 18q0 -8 -5 -13t-13 -5h-44q-8 0 -13 5t-5 13v673q0 8 5 13t13 5h44q8 0 13 -5t5 -13v-673zM144 894q10 0 14 -5t9 -11l62 -93q3 -5 3 -9q0 -7 -12 -7h-42q-8 0 -15 9l-42 53l-42 -53q-4 -5 -7 -7t-8 -2h-42q-12 0 -12 7q0 4 3 9l62 93q5 6 9 11t14 5h46z" />
    <glyph glyph-name="Idieresis" unicode="&#xcf;" horiz-adv-x="249" 
d="M163 18q0 -8 -5 -13t-13 -5h-44q-8 0 -13 5t-5 13v673q0 8 5 13t13 5h44q8 0 13 -5t5 -13v-673zM93 809q0 -8 -5 -13t-13 -5h-60q-8 0 -13 5t-5 13v49q0 8 5 13t13 5h60q8 0 13 -5t5 -13v-49zM252 809q0 -8 -5 -13t-13 -5h-60q-8 0 -13 5t-5 13v49q0 8 5 13t13 5h60
q8 0 13 -5t5 -13v-49z" />
    <glyph glyph-name="Eth" unicode="&#xd0;" horiz-adv-x="501" 
d="M0 291q-8 0 -13 5t-5 13v36q0 8 5 13t13 5h67v328q0 8 5 13t13 5h225q28 0 53 -10t43.5 -29t29 -46.5t10.5 -61.5v-415q0 -34 -10.5 -61.5t-29 -46.5t-43.5 -29t-53 -10h-225q-8 0 -13 5t-5 13v273h-67zM227 363q8 0 13 -5t5 -13v-36q0 -8 -5 -13t-13 -5h-80v-223h140
q83 0 83 92v389q0 92 -83 92h-140v-278h80z" />
    <glyph glyph-name="Ntilde" unicode="&#xd1;" horiz-adv-x="545" 
d="M57 691q0 8 5 13t13 5h53q15 0 23 -17l257 -542v541q0 8 5 13t13 5h44q8 0 13 -5t5 -13v-673q0 -8 -5 -13t-13 -5h-53q-15 0 -23 17l-257 542v-541q0 -8 -5 -13t-13 -5h-44q-8 0 -13 5t-5 13v673zM293 801q-10 5 -21 9.5t-27 4.5q-17 0 -31 -9t-20 -12q-3 -3 -9 -3
q-4 0 -9.5 5t-21.5 31q-4 6 -4 9q0 5 11 11q4 3 12.5 8t19.5 10t24.5 8.5t27.5 3.5q16 0 27.5 -4.5t22.5 -9.5t22.5 -9.5t27.5 -4.5t30.5 9.5t20.5 13.5q2 1 4.5 2t4.5 1q4 0 9 -5.5t22 -30.5q3 -4 3 -9q0 -4 -2.5 -5.5t-7.5 -6.5q-3 -3 -11.5 -8t-20 -10.5t-25 -9
t-27.5 -3.5q-17 0 -29 4.5t-23 9.5z" />
    <glyph glyph-name="Ograve" unicode="&#xd2;" horiz-adv-x="500" 
d="M250 55q52 0 83 33t31 87v360q0 54 -31 87.5t-83 33.5t-83 -33.5t-31 -87.5v-360q0 -54 31 -87t83 -33zM250 730q41 0 77 -14t62.5 -39.5t41.5 -61.5t15 -80v-360q0 -44 -15 -80t-41.5 -61.5t-62.5 -39t-77 -13.5t-77 13.5t-62.5 39t-41.5 61.5t-15 80v360q0 44 15 80
t41.5 61.5t62.5 39.5t77 14zM185 871q-2 4 -2 6q0 6 5 10.5t12 4.5h49q9 0 16 -6.5t11 -14.5l31 -70q3 -5 3 -11q0 -16 -18 -16h-24q-11 0 -16 3.5t-12 12.5z" />
    <glyph glyph-name="Oacute" unicode="&#xd3;" horiz-adv-x="500" 
d="M250 55q52 0 83 33t31 87v360q0 54 -31 87.5t-83 33.5t-83 -33.5t-31 -87.5v-360q0 -54 31 -87t83 -33zM250 730q41 0 77 -14t62.5 -39.5t41.5 -61.5t15 -80v-360q0 -44 -15 -80t-41.5 -61.5t-62.5 -39t-77 -13.5t-77 13.5t-62.5 39t-41.5 61.5t-15 80v360q0 44 15 80
t41.5 61.5t62.5 39.5t77 14zM273 791q-7 -9 -12 -12.5t-16 -3.5h-24q-18 0 -18 16q0 6 3 11l31 70q4 8 11 14.5t16 6.5h49q7 0 12 -4.5t5 -10.5q0 -2 -2 -6z" />
    <glyph glyph-name="Ocircumflex" unicode="&#xd4;" horiz-adv-x="500" 
d="M250 730q41 0 77 -14t62.5 -39.5t41.5 -61.5t15 -80v-360q0 -44 -15 -80t-41.5 -61.5t-62.5 -39t-77 -13.5t-77 13.5t-62.5 39t-41.5 61.5t-15 80v360q0 44 15 80t41.5 61.5t62.5 39.5t77 14zM250 55q52 0 83 33t31 87v360q0 54 -31 87.5t-83 33.5t-83 -33.5t-31 -87.5
v-360q0 -54 31 -87t83 -33zM273 901q10 0 14 -5t9 -11l62 -93q3 -5 3 -9q0 -7 -12 -7h-42q-8 0 -15 9l-42 53l-42 -53q-4 -5 -7 -7t-8 -2h-42q-12 0 -12 7q0 4 3 9l62 93q5 6 9 11t14 5h46z" />
    <glyph glyph-name="Otilde" unicode="&#xd5;" horiz-adv-x="500" 
d="M250 55q52 0 83 33t31 87v360q0 54 -31 87.5t-83 33.5t-83 -33.5t-31 -87.5v-360q0 -54 31 -87t83 -33zM250 730q41 0 77 -14t62.5 -39.5t41.5 -61.5t15 -80v-360q0 -44 -15 -80t-41.5 -61.5t-62.5 -39t-77 -13.5t-77 13.5t-62.5 39t-41.5 61.5t-15 80v360q0 44 15 80
t41.5 61.5t62.5 39.5t77 14zM247 802q-10 5 -21 9.5t-27 4.5q-17 0 -31 -9t-20 -12q-3 -3 -9 -3q-4 0 -9.5 5t-21.5 31q-4 6 -4 9q0 5 11 11q4 3 12.5 8t19.5 10t24.5 8.5t27.5 3.5q16 0 27.5 -4.5t22.5 -9.5t22.5 -9.5t27.5 -4.5t30.5 9.5t20.5 13.5q2 1 4.5 2t4.5 1
q4 0 9 -5.5t22 -30.5q3 -4 3 -9q0 -4 -2.5 -5.5t-7.5 -6.5q-3 -3 -11.5 -8t-20 -10.5t-25 -9t-27.5 -3.5q-17 0 -29 4.5t-23 9.5z" />
    <glyph glyph-name="Odieresis" unicode="&#xd6;" horiz-adv-x="500" 
d="M250 55q52 0 83 33t31 87v360q0 54 -31 87.5t-83 33.5t-83 -33.5t-31 -87.5v-360q0 -54 31 -87t83 -33zM250 730q41 0 77 -14t62.5 -39.5t41.5 -61.5t15 -80v-360q0 -44 -15 -80t-41.5 -61.5t-62.5 -39t-77 -13.5t-77 13.5t-62.5 39t-41.5 61.5t-15 80v360q0 44 15 80
t41.5 61.5t62.5 39.5t77 14zM219 810q0 -8 -5 -13t-13 -5h-60q-8 0 -13 5t-5 13v49q0 8 5 13t13 5h60q8 0 13 -5t5 -13v-49zM378 810q0 -8 -5 -13t-13 -5h-60q-8 0 -13 5t-5 13v49q0 8 5 13t13 5h60q8 0 13 -5t5 -13v-49z" />
    <glyph glyph-name="multiply" unicode="&#xd7;" 
d="M116 387q-4 4 -4 13q0 8 4 13l26 26q4 4 12 4t13 -5l120 -119l116 116q5 5 14 5q6 0 13 -5l25 -26q5 -5 5 -12q0 -8 -5 -13l-117 -117l119 -119q4 -5 4 -12q0 -8 -5 -13l-26 -26q-5 -5 -11 -5q-8 0 -13 5l-120 119l-118 -118q-5 -5 -13 -5q-6 0 -13 5l-25 25q-5 7 -5 13
q0 8 5 13l119 119z" />
    <glyph glyph-name="Oslash" unicode="&#xd8;" horiz-adv-x="523" 
d="M266 728q41 0 76.5 -13.5t61.5 -39.5l28 48q5 10 14 10q5 0 10 -3l34 -19q8 -4 8 -15q0 -6 -2 -9l-47 -81q6 -17 9.5 -35t3.5 -38v-360q0 -44 -15 -80t-41.5 -61.5t-62.5 -39t-77 -13.5q-42 0 -78.5 14.5t-63.5 40.5l-22 -40q-5 -9 -15 -9q-6 0 -10 2l-33 19q-9 4 -9 15
q0 3 2 9l43 76q-5 15 -7.5 32t-2.5 35v360q0 44 15 80t41.5 61.5t62.5 39.5t77 14zM266 55q52 0 83 33t31 87v308l-213 -374q14 -26 39.5 -40t59.5 -14zM266 656q-52 0 -83 -33.5t-31 -87.5v-303l211 370q-14 25 -39 39.5t-58 14.5z" />
    <glyph glyph-name="Ugrave" unicode="&#xd9;" horiz-adv-x="504" 
d="M56 691q0 8 5 13t13 5h46q8 0 13 -5t5 -13v-516q0 -54 31 -87t83 -33t83 33t31 87v516q0 8 5 13t13 5h46q8 0 13 -5t5 -13v-516q0 -44 -15 -80t-41.5 -61.5t-62.5 -39t-77 -13.5t-77 13.5t-62.5 39t-41.5 61.5t-15 80v516zM180 870q-2 4 -2 6q0 6 5 10.5t12 4.5h49
q9 0 16 -6.5t11 -14.5l31 -70q3 -5 3 -11q0 -16 -18 -16h-24q-11 0 -16 3.5t-12 12.5z" />
    <glyph glyph-name="Uacute" unicode="&#xda;" horiz-adv-x="504" 
d="M56 691q0 8 5 13t13 5h46q8 0 13 -5t5 -13v-516q0 -54 31 -87t83 -33t83 33t31 87v516q0 8 5 13t13 5h46q8 0 13 -5t5 -13v-516q0 -44 -15 -80t-41.5 -61.5t-62.5 -39t-77 -13.5t-77 13.5t-62.5 39t-41.5 61.5t-15 80v516zM284 790q-7 -9 -12 -12.5t-16 -3.5h-24
q-18 0 -18 16q0 6 3 11l31 70q4 8 11 14.5t16 6.5h49q7 0 12 -4.5t5 -10.5q0 -2 -2 -6z" />
    <glyph glyph-name="Ucircumflex" unicode="&#xdb;" horiz-adv-x="504" 
d="M56 691q0 8 5 13t13 5h46q8 0 13 -5t5 -13v-516q0 -54 31 -87t83 -33t83 33t31 87v516q0 8 5 13t13 5h46q8 0 13 -5t5 -13v-516q0 -44 -15 -80t-41.5 -61.5t-62.5 -39t-77 -13.5t-77 13.5t-62.5 39t-41.5 61.5t-15 80v516zM275 892q10 0 14 -5t9 -11l62 -93q3 -5 3 -9
q0 -7 -12 -7h-42q-8 0 -15 9l-42 53l-42 -53q-4 -5 -7 -7t-8 -2h-42q-12 0 -12 7q0 4 3 9l62 93q5 6 9 11t14 5h46z" />
    <glyph glyph-name="Udieresis" unicode="&#xdc;" horiz-adv-x="504" 
d="M56 691q0 8 5 13t13 5h46q8 0 13 -5t5 -13v-516q0 -54 31 -87t83 -33t83 33t31 87v516q0 8 5 13t13 5h46q8 0 13 -5t5 -13v-516q0 -44 -15 -80t-41.5 -61.5t-62.5 -39t-77 -13.5t-77 13.5t-62.5 39t-41.5 61.5t-15 80v516zM225 809q0 -8 -5 -13t-13 -5h-60q-8 0 -13 5
t-5 13v49q0 8 5 13t13 5h60q8 0 13 -5t5 -13v-49zM384 809q0 -8 -5 -13t-13 -5h-60q-8 0 -13 5t-5 13v49q0 8 5 13t13 5h60q8 0 13 -5t5 -13v-49z" />
    <glyph glyph-name="Yacute" unicode="&#xdd;" horiz-adv-x="520" 
d="M220 331l-187 355q-2 4 -2 7q0 16 17 16h41q9 0 14 -4t13 -19l144 -265l144 265q8 15 13 19t14 4h41q17 0 17 -16q0 -3 -2 -7l-187 -355v-313q0 -8 -5 -13t-13 -5h-44q-8 0 -13 5t-5 13v313zM270 791q-7 -9 -12 -12.5t-16 -3.5h-24q-18 0 -18 16q0 6 3 11l31 70
q4 8 11 14.5t16 6.5h49q7 0 12 -4.5t5 -10.5q0 -2 -2 -6z" />
    <glyph glyph-name="Thorn" unicode="&#xde;" horiz-adv-x="474" 
d="M146 18q0 -8 -5 -13t-13 -5h-44q-8 0 -13 5t-5 13v673q0 8 5 13t13 5h44q8 0 13 -5t5 -13v-159h159q29 0 53.5 -10t42.5 -28t28 -42.5t10 -52.5v-107q0 -28 -10 -52.5t-28 -42.5t-42.5 -28t-53.5 -10h-159v-141zM361 379q0 47 -22.5 66t-66.5 19h-126v-237h126
q44 0 66.5 19t22.5 66v67z" />
    <glyph glyph-name="germandbls" unicode="&#xdf;" horiz-adv-x="504" 
d="M305 434q11 0 22 4t19.5 12.5t14 22.5t5.5 34v30q0 62 -29 90.5t-88 28.5q-116 0 -116 -119v-519q0 -8 -5 -13t-13 -5h-41q-8 0 -13 5t-5 13v519q0 44 15 80t41 61.5t61 39t76 13.5q43 0 79 -12.5t61.5 -37.5t40 -61t14.5 -83q0 -33 -6 -56t-15.5 -38.5t-22.5 -26
t-27 -17.5q46 -12 67 -42.5t21 -68.5v-162q0 -29 -10 -52.5t-27 -40t-40 -25t-48 -8.5h-67q-8 0 -13 5t-5 13v33q0 8 5 13t13 5h45q33 0 49.5 17t16.5 56v126q0 30 -8.5 48t-22 27.5t-30.5 12t-34 2.5h-33q-8 0 -13 5t-5 13v40q0 8 5 13t13 5h53z" />
    <glyph glyph-name="agrave" unicode="&#xe0;" horiz-adv-x="445" 
d="M154 719q-2 4 -2 6q0 6 5 10.5t12 4.5h49q9 0 16 -6.5t11 -14.5l31 -70q3 -5 3 -11q0 -16 -18 -16h-24q-11 0 -16 3.5t-12 12.5zM166 213q-34 -18 -44.5 -38t-10.5 -44q0 -40 24.5 -59.5t59.5 -19.5q22 0 44 6.5t40 20t29.5 33t11.5 45.5v133zM266 332q29 14 41 28.5
t12 34.5q0 38 -22 63t-73 25q-44 0 -68 -25t-24 -67v-4q0 -8 -5 -13t-13 -5h-38q-8 0 -13 5t-5 13v11q0 32 12.5 60t35.5 48.5t55 32t70 11.5q42 0 72.5 -12.5t50.5 -34.5t30 -51.5t10 -63.5v-370q0 -8 -5 -13t-13 -5h-38q-8 0 -13 5t-5 13v48q-20 -33 -58.5 -55t-85.5 -22
q-26 0 -51.5 8.5t-45.5 25.5t-32.5 42.5t-12.5 58.5q0 45 21.5 82t71.5 60z" />
    <glyph glyph-name="aacute" unicode="&#xe1;" horiz-adv-x="445" 
d="M261 638q-7 -9 -12 -12.5t-16 -3.5h-24q-18 0 -18 16q0 6 3 11l31 70q4 8 11 14.5t16 6.5h49q7 0 12 -4.5t5 -10.5q0 -2 -2 -6zM166 213q-34 -18 -44.5 -38t-10.5 -44q0 -40 24.5 -59.5t59.5 -19.5q22 0 44 6.5t40 20t29.5 33t11.5 45.5v133zM266 332q29 14 41 28.5
t12 34.5q0 38 -22 63t-73 25q-44 0 -68 -25t-24 -67v-4q0 -8 -5 -13t-13 -5h-38q-8 0 -13 5t-5 13v11q0 32 12.5 60t35.5 48.5t55 32t70 11.5q42 0 72.5 -12.5t50.5 -34.5t30 -51.5t10 -63.5v-370q0 -8 -5 -13t-13 -5h-38q-8 0 -13 5t-5 13v48q-20 -33 -58.5 -55t-85.5 -22
q-26 0 -51.5 8.5t-45.5 25.5t-32.5 42.5t-12.5 58.5q0 45 21.5 82t71.5 60z" />
    <glyph glyph-name="acircumflex" unicode="&#xe2;" horiz-adv-x="445" 
d="M266 332q29 14 41 28.5t12 34.5q0 38 -22 63t-73 25q-44 0 -68 -25t-24 -67v-4q0 -8 -5 -13t-13 -5h-38q-8 0 -13 5t-5 13v11q0 32 12.5 60t35.5 48.5t55 32t70 11.5q42 0 72.5 -12.5t50.5 -34.5t30 -51.5t10 -63.5v-370q0 -8 -5 -13t-13 -5h-38q-8 0 -13 5t-5 13v48
q-20 -33 -58.5 -55t-85.5 -22q-26 0 -51.5 8.5t-45.5 25.5t-32.5 42.5t-12.5 58.5q0 45 21.5 82t71.5 60zM166 213q-34 -18 -44.5 -38t-10.5 -44q0 -40 24.5 -59.5t59.5 -19.5q22 0 44 6.5t40 20t29.5 33t11.5 45.5v133zM255 726q10 0 14 -5t9 -11l62 -93q3 -5 3 -9
q0 -7 -12 -7h-42q-8 0 -15 9l-42 53l-42 -53q-4 -5 -7 -7t-8 -2h-42q-12 0 -12 7q0 4 3 9l62 93q5 6 9 11t14 5h46z" />
    <glyph glyph-name="atilde" unicode="&#xe3;" horiz-adv-x="445" 
d="M231 633q-10 5 -21 9.5t-27 4.5q-17 0 -31 -9t-20 -12q-3 -3 -9 -3q-4 0 -9.5 5t-21.5 31q-4 6 -4 9q0 5 11 11q4 3 12.5 8t19.5 10t24.5 8.5t27.5 3.5q16 0 27.5 -4.5t22.5 -9.5t22.5 -9.5t27.5 -4.5t30.5 9.5t20.5 13.5q2 1 4.5 2t4.5 1q4 0 9 -5.5t22 -30.5q3 -4 3 -9
q0 -4 -2.5 -5.5t-7.5 -6.5q-3 -3 -11.5 -8t-20 -10.5t-25 -9t-27.5 -3.5q-17 0 -29 4.5t-23 9.5zM166 213q-34 -18 -44.5 -38t-10.5 -44q0 -40 24.5 -59.5t59.5 -19.5q22 0 44 6.5t40 20t29.5 33t11.5 45.5v133zM266 332q29 14 41 28.5t12 34.5q0 38 -22 63t-73 25
q-44 0 -68 -25t-24 -67v-4q0 -8 -5 -13t-13 -5h-38q-8 0 -13 5t-5 13v11q0 32 12.5 60t35.5 48.5t55 32t70 11.5q42 0 72.5 -12.5t50.5 -34.5t30 -51.5t10 -63.5v-370q0 -8 -5 -13t-13 -5h-38q-8 0 -13 5t-5 13v48q-20 -33 -58.5 -55t-85.5 -22q-26 0 -51.5 8.5t-45.5 25.5
t-32.5 42.5t-12.5 58.5q0 45 21.5 82t71.5 60z" />
    <glyph glyph-name="adieresis" unicode="&#xe4;" horiz-adv-x="445" 
d="M199 639q0 -8 -5 -13t-13 -5h-60q-8 0 -13 5t-5 13v49q0 8 5 13t13 5h60q8 0 13 -5t5 -13v-49zM358 639q0 -8 -5 -13t-13 -5h-60q-8 0 -13 5t-5 13v49q0 8 5 13t13 5h60q8 0 13 -5t5 -13v-49zM166 213q-34 -18 -44.5 -38t-10.5 -44q0 -40 24.5 -59.5t59.5 -19.5
q22 0 44 6.5t40 20t29.5 33t11.5 45.5v133zM266 332q29 14 41 28.5t12 34.5q0 38 -22 63t-73 25q-44 0 -68 -25t-24 -67v-4q0 -8 -5 -13t-13 -5h-38q-8 0 -13 5t-5 13v11q0 32 12.5 60t35.5 48.5t55 32t70 11.5q42 0 72.5 -12.5t50.5 -34.5t30 -51.5t10 -63.5v-370
q0 -8 -5 -13t-13 -5h-38q-8 0 -13 5t-5 13v48q-20 -33 -58.5 -55t-85.5 -22q-26 0 -51.5 8.5t-45.5 25.5t-32.5 42.5t-12.5 58.5q0 45 21.5 82t71.5 60z" />
    <glyph glyph-name="aring" unicode="&#xe5;" horiz-adv-x="445" 
d="M156 537q-18 16 -28.5 38t-10.5 47q0 22 9 42.5t24.5 36t35.5 24.5t43 9t43.5 -9t36 -24.5t24.5 -36t9 -42.5q0 -26 -10.5 -47.5t-28.5 -37.5q47 -18 69 -58t22 -91v-370q0 -8 -5 -13t-13 -5h-38q-8 0 -13 5t-5 13v48q-20 -33 -58.5 -55t-85.5 -22q-26 0 -51.5 8.5
t-45.5 25.5t-32.5 42.5t-12.5 58.5q0 45 21.5 82t71.5 60l139 66q29 14 41 28.5t12 34.5q0 38 -22 63t-73 25q-44 0 -68 -25t-24 -67v-4q0 -8 -5 -13t-13 -5h-38q-8 0 -13 5t-5 13v11q0 48 26.5 84.5t72.5 54.5h-1zM166 213q-34 -18 -44.5 -38t-10.5 -44q0 -40 24.5 -59.5
t59.5 -19.5q22 0 44 6.5t40 20t29.5 33t11.5 45.5v133zM298 622q0 12 -4.5 24t-13.5 22t-22 16.5t-29 6.5t-28.5 -6.5t-21 -16.5t-13 -22t-4.5 -24t4.5 -24t13 -22.5t21 -17t28.5 -6.5t29 6.5t22 17t13.5 22.5t4.5 24z" />
    <glyph glyph-name="ae" unicode="&#xe6;" horiz-adv-x="719" 
d="M195 52q22 0 44 6.5t40 20t29.5 33t11.5 45.5v133l-154 -77q-35 -17 -45 -37.5t-10 -44.5q0 -40 24.5 -59.5t59.5 -19.5zM606 314v64q0 21 -8.5 40.5t-23 33.5t-33.5 22.5t-41 8.5q-23 0 -42 -8.5t-33.5 -22.5t-22.5 -33.5t-8 -40.5v-64h212zM319 395q0 38 -22 63t-73 25
q-44 0 -68 -25t-24 -67v-4q0 -8 -5 -13t-13 -5h-38q-8 0 -13 5t-5 13v11q0 32 12.5 60t35.5 48.5t55 32t70 11.5q48 0 80.5 -16t52.5 -44q24 27 59 43.5t77 16.5q39 0 71.5 -14t56.5 -38t37.5 -55t13.5 -65v-108q0 -8 -5 -13t-13 -5h-267v-95q0 -21 8 -40.5t22.5 -33.5
t33.5 -22.5t42 -8.5q21 0 39.5 7.5t33 21t23 31t8.5 37.5v8q0 8 5 13t13 5h39q8 0 13 -5t5 -13v-8q0 -33 -14 -63t-38 -52.5t-57 -35.5t-70 -13q-27 0 -51 7.5t-44.5 20t-36 28t-24.5 32.5q-23 -36 -63.5 -63t-104.5 -27q-26 0 -51.5 9.5t-45.5 27.5t-32.5 44.5t-12.5 59.5
q0 45 21.5 82t71.5 60l139 66q29 14 41 28.5t12 34.5z" />
    <glyph glyph-name="ccedilla" unicode="&#xe7;" horiz-adv-x="443" 
d="M48 378q0 34 13 65t36.5 55t56 38t71.5 14t71.5 -14t56.5 -38t37 -55t13 -65v-5q0 -8 -5 -13t-13 -5h-39q-8 0 -13 5t-5 13v5q0 21 -8 40.5t-21.5 33.5t-32.5 22.5t-41 8.5t-40.5 -8.5t-32 -22.5t-21.5 -33.5t-8 -40.5v-221q0 -21 8 -40.5t21.5 -33.5t32 -22.5t40.5 -8.5
t41 8.5t32.5 22.5t21.5 33.5t8 40.5v10q0 8 5 13t13 5h39q8 0 13 -5t5 -13v-10q0 -34 -13 -65t-36.5 -54.5t-56 -38t-71.5 -14.5l-11 -37q10 4 14.5 5t14.5 1t24.5 -4.5t27.5 -14.5t22 -26.5t9 -40.5q0 -15 -5 -31.5t-17 -30.5t-31.5 -23t-47.5 -9q-18 0 -38 8t-34 19
q-4 2 -7 6t-3 7q0 2 0.5 5.5t4.5 7.5l13 13q7 7 12 7q3 0 9 -4q23 -17 46 -17q19 0 27 13t8 29q0 26 -13 33.5t-24 7.5q-5 0 -8 -1q-11 -4 -14 -8.5t-12 -4.5q-3 0 -11 2l-15 4q-10 3 -10 13v2q0 2 1 4l21 71q-29 7 -53.5 23t-41.5 38t-26.5 49t-9.5 56v221z" />
    <glyph glyph-name="egrave" unicode="&#xe8;" horiz-adv-x="446" 
d="M333 314v64q0 21 -8.5 40.5t-23 33.5t-33.5 22.5t-41 8.5q-23 0 -42 -8.5t-33.5 -22.5t-22.5 -33.5t-8 -40.5v-64h212zM121 252v-95q0 -21 8 -40.5t22.5 -33.5t33.5 -22.5t42 -8.5q21 0 39.5 7.5t33 21t23 31t8.5 37.5v8q0 8 5 13t13 5h39q8 0 13 -5t5 -13v-8
q0 -33 -14 -63t-38 -52.5t-57 -35.5t-70 -13q-39 0 -71.5 14t-56.5 38t-37.5 55t-13.5 65v221q0 34 13.5 65t37.5 55t56.5 38t71.5 14t71.5 -14t56.5 -38t37.5 -55t13.5 -65v-108q0 -8 -5 -13t-13 -5h-267zM144 701q-2 4 -2 6q0 6 5 10.5t12 4.5h49q9 0 16 -6.5t11 -14.5
l31 -70q3 -5 3 -11q0 -16 -18 -16h-24q-11 0 -16 3.5t-12 12.5z" />
    <glyph glyph-name="eacute" unicode="&#xe9;" horiz-adv-x="446" 
d="M333 314v64q0 21 -8.5 40.5t-23 33.5t-33.5 22.5t-41 8.5q-23 0 -42 -8.5t-33.5 -22.5t-22.5 -33.5t-8 -40.5v-64h212zM121 252v-95q0 -21 8 -40.5t22.5 -33.5t33.5 -22.5t42 -8.5q21 0 39.5 7.5t33 21t23 31t8.5 37.5v8q0 8 5 13t13 5h39q8 0 13 -5t5 -13v-8
q0 -33 -14 -63t-38 -52.5t-57 -35.5t-70 -13q-39 0 -71.5 14t-56.5 38t-37.5 55t-13.5 65v221q0 34 13.5 65t37.5 55t56.5 38t71.5 14t71.5 -14t56.5 -38t37.5 -55t13.5 -65v-108q0 -8 -5 -13t-13 -5h-267zM262 621q-7 -9 -12 -12.5t-16 -3.5h-24q-18 0 -18 16q0 6 3 11
l31 70q4 8 11 14.5t16 6.5h49q7 0 12 -4.5t5 -10.5q0 -2 -2 -6z" />
    <glyph glyph-name="ecircumflex" unicode="&#xea;" horiz-adv-x="446" 
d="M121 252v-95q0 -21 8 -40.5t22.5 -33.5t33.5 -22.5t42 -8.5q21 0 39.5 7.5t33 21t23 31t8.5 37.5v8q0 8 5 13t13 5h39q8 0 13 -5t5 -13v-8q0 -33 -14 -63t-38 -52.5t-57 -35.5t-70 -13q-39 0 -71.5 14t-56.5 38t-37.5 55t-13.5 65v221q0 34 13.5 65t37.5 55t56.5 38
t71.5 14t71.5 -14t56.5 -38t37.5 -55t13.5 -65v-108q0 -8 -5 -13t-13 -5h-267zM333 314v64q0 21 -8.5 40.5t-23 33.5t-33.5 22.5t-41 8.5q-23 0 -42 -8.5t-33.5 -22.5t-22.5 -33.5t-8 -40.5v-64h212zM250 727q10 0 14 -5t9 -11l62 -93q3 -5 3 -9q0 -7 -12 -7h-42q-8 0 -15 9
l-42 53l-42 -53q-4 -5 -7 -7t-8 -2h-42q-12 0 -12 7q0 4 3 9l62 93q5 6 9 11t14 5h46z" />
    <glyph glyph-name="edieresis" unicode="&#xeb;" horiz-adv-x="446" 
d="M333 314v64q0 21 -8.5 40.5t-23 33.5t-33.5 22.5t-41 8.5q-23 0 -42 -8.5t-33.5 -22.5t-22.5 -33.5t-8 -40.5v-64h212zM121 252v-95q0 -21 8 -40.5t22.5 -33.5t33.5 -22.5t42 -8.5q21 0 39.5 7.5t33 21t23 31t8.5 37.5v8q0 8 5 13t13 5h39q8 0 13 -5t5 -13v-8
q0 -33 -14 -63t-38 -52.5t-57 -35.5t-70 -13q-39 0 -71.5 14t-56.5 38t-37.5 55t-13.5 65v221q0 34 13.5 65t37.5 55t56.5 38t71.5 14t71.5 -14t56.5 -38t37.5 -55t13.5 -65v-108q0 -8 -5 -13t-13 -5h-267zM189 640q0 -8 -5 -13t-13 -5h-60q-8 0 -13 5t-5 13v49q0 8 5 13
t13 5h60q8 0 13 -5t5 -13v-49zM348 640q0 -8 -5 -13t-13 -5h-60q-8 0 -13 5t-5 13v49q0 8 5 13t13 5h60q8 0 13 -5t5 -13v-49z" />
    <glyph glyph-name="igrave" unicode="&#xec;" horiz-adv-x="218" 
d="M83 517q0 8 5 13t13 5h38q8 0 13 -5t5 -13v-499q0 -8 -5 -13t-13 -5h-38q-8 0 -13 5t-5 13v499zM22 701q-2 4 -2 6q0 6 5 10.5t12 4.5h49q9 0 16 -6.5t11 -14.5l31 -70q3 -5 3 -11q0 -16 -18 -16h-24q-11 0 -16 3.5t-12 12.5z" />
    <glyph glyph-name="iacute" unicode="&#xed;" horiz-adv-x="212" 
d="M61 517q0 8 5 13t13 5h38q8 0 13 -5t5 -13v-499q0 -8 -5 -13t-13 -5h-38q-8 0 -13 5t-5 13v499zM135 621q-7 -9 -12 -12.5t-16 -3.5h-24q-18 0 -18 16q0 6 3 11l31 70q4 8 11 14.5t16 6.5h49q7 0 12 -4.5t5 -10.5q0 -2 -2 -6z" />
    <glyph glyph-name="icircumflex" unicode="&#xee;" horiz-adv-x="262" 
d="M95 517q0 8 5 13t13 5h38q8 0 13 -5t5 -13v-499q0 -8 -5 -13t-13 -5h-38q-8 0 -13 5t-5 13v499zM154 731q10 0 14 -5t9 -11l62 -93q3 -5 3 -9q0 -7 -12 -7h-42q-8 0 -15 9l-42 53l-42 -53q-4 -5 -7 -7t-8 -2h-42q-12 0 -12 7q0 4 3 9l62 93q5 6 9 11t14 5h46z" />
    <glyph glyph-name="idieresis" unicode="&#xef;" horiz-adv-x="285" 
d="M111 640q0 -8 -5 -13t-13 -5h-60q-8 0 -13 5t-5 13v49q0 8 5 13t13 5h60q8 0 13 -5t5 -13v-49zM270 640q0 -8 -5 -13t-13 -5h-60q-8 0 -13 5t-5 13v49q0 8 5 13t13 5h60q8 0 13 -5t5 -13v-49zM114 517q0 8 5 13t13 5h38q8 0 13 -5t5 -13v-499q0 -8 -5 -13t-13 -5h-38
q-8 0 -13 5t-5 13v499z" />
    <glyph glyph-name="eth" unicode="&#xf0;" horiz-adv-x="524" 
d="M133 172q0 -51 27 -85.5t79 -34.5t79 34.5t27 85.5v170q0 51 -27 85.5t-79 34.5t-79 -34.5t-27 -85.5v-170zM420 483v-311q0 -43 -13.5 -78.5t-37.5 -61t-57.5 -40t-72.5 -14.5t-72.5 14.5t-57.5 40t-37.5 61t-13.5 78.5v177q0 40 13 74.5t35.5 60t53.5 39.5t67 14
q32 0 61 -11.5t57 -37.5v72q0 51 -27 84t-79 33q-8 0 -13 5t-5 13v42q0 8 5 13t13 5q39 0 72.5 -15.5t57.5 -42.5t37.5 -63.5t13.5 -78.5h36q8 0 13 -5t5 -13v-36q0 -8 -5 -13t-13 -5h-36z" />
    <glyph glyph-name="ntilde" unicode="&#xf1;" horiz-adv-x="452" 
d="M131 18q0 -8 -5 -13t-13 -5h-38q-8 0 -13 5t-5 13v499q0 8 5 13t13 5h38q8 0 13 -5t5 -13v-47q17 33 49.5 57t82.5 24q25 0 50 -11t44.5 -32t31.5 -52.5t12 -72.5v-365q0 -8 -5 -13t-13 -5h-39q-8 0 -13 5t-5 13v342q0 21 -3.5 42.5t-14 39.5t-29 29.5t-48.5 11.5
q-31 0 -50.5 -13t-30.5 -32t-15 -40.5t-4 -37.5v-342zM241 634q-10 5 -21 9.5t-27 4.5q-17 0 -31 -9t-20 -12q-3 -3 -9 -3q-4 0 -9.5 5t-21.5 31q-4 6 -4 9q0 5 11 11q4 3 12.5 8t19.5 10t24.5 8.5t27.5 3.5q16 0 27.5 -4.5t22.5 -9.5t22.5 -9.5t27.5 -4.5t30.5 9.5
t20.5 13.5q2 1 4.5 2t4.5 1q4 0 9 -5.5t22 -30.5q3 -4 3 -9q0 -4 -2.5 -5.5t-7.5 -6.5q-3 -3 -11.5 -8t-20 -10.5t-25 -9t-27.5 -3.5q-17 0 -29 4.5t-23 9.5z" />
    <glyph glyph-name="ograve" unicode="&#xf2;" horiz-adv-x="454" 
d="M227 -15q-39 0 -71.5 14t-56.5 38t-37.5 55t-13.5 65v221q0 34 13.5 65t37.5 55t56.5 38t71.5 14t71.5 -14t56.5 -38t37.5 -55t13.5 -65v-221q0 -34 -13.5 -65t-37.5 -55t-56.5 -38t-71.5 -14zM227 483q-22 0 -41 -8.5t-33 -22.5t-22 -33.5t-8 -40.5v-221q0 -21 8 -40.5
t22 -33.5t33 -22.5t41 -8.5t41 8.5t33 22.5t22 33.5t8 40.5v221q0 21 -8 40.5t-22 33.5t-33 22.5t-41 8.5zM156 702q-2 4 -2 6q0 6 5 10.5t12 4.5h49q9 0 16 -6.5t11 -14.5l31 -70q3 -5 3 -11q0 -16 -18 -16h-24q-11 0 -16 3.5t-12 12.5z" />
    <glyph glyph-name="oacute" unicode="&#xf3;" horiz-adv-x="454" 
d="M227 -15q-39 0 -71.5 14t-56.5 38t-37.5 55t-13.5 65v221q0 34 13.5 65t37.5 55t56.5 38t71.5 14t71.5 -14t56.5 -38t37.5 -55t13.5 -65v-221q0 -34 -13.5 -65t-37.5 -55t-56.5 -38t-71.5 -14zM227 483q-22 0 -41 -8.5t-33 -22.5t-22 -33.5t-8 -40.5v-221q0 -21 8 -40.5
t22 -33.5t33 -22.5t41 -8.5t41 8.5t33 22.5t22 33.5t8 40.5v221q0 21 -8 40.5t-22 33.5t-33 22.5t-41 8.5zM265 623q-7 -9 -12 -12.5t-16 -3.5h-24q-18 0 -18 16q0 6 3 11l31 70q4 8 11 14.5t16 6.5h49q7 0 12 -4.5t5 -10.5q0 -2 -2 -6z" />
    <glyph glyph-name="ocircumflex" unicode="&#xf4;" horiz-adv-x="454" 
d="M227 -15q-39 0 -71.5 14t-56.5 38t-37.5 55t-13.5 65v221q0 34 13.5 65t37.5 55t56.5 38t71.5 14t71.5 -14t56.5 -38t37.5 -55t13.5 -65v-221q0 -34 -13.5 -65t-37.5 -55t-56.5 -38t-71.5 -14zM227 483q-22 0 -41 -8.5t-33 -22.5t-22 -33.5t-8 -40.5v-221q0 -21 8 -40.5
t22 -33.5t33 -22.5t41 -8.5t41 8.5t33 22.5t22 33.5t8 40.5v221q0 21 -8 40.5t-22 33.5t-33 22.5t-41 8.5zM250 727q10 0 14 -5t9 -11l62 -93q3 -5 3 -9q0 -7 -12 -7h-42q-8 0 -15 9l-42 53l-42 -53q-4 -5 -7 -7t-8 -2h-42q-12 0 -12 7q0 4 3 9l62 93q5 6 9 11t14 5h46z" />
    <glyph glyph-name="otilde" unicode="&#xf5;" horiz-adv-x="454" 
d="M227 -15q-39 0 -71.5 14t-56.5 38t-37.5 55t-13.5 65v221q0 34 13.5 65t37.5 55t56.5 38t71.5 14t71.5 -14t56.5 -38t37.5 -55t13.5 -65v-221q0 -34 -13.5 -65t-37.5 -55t-56.5 -38t-71.5 -14zM227 483q-22 0 -41 -8.5t-33 -22.5t-22 -33.5t-8 -40.5v-221q0 -21 8 -40.5
t22 -33.5t33 -22.5t41 -8.5t41 8.5t33 22.5t22 33.5t8 40.5v221q0 21 -8 40.5t-22 33.5t-33 22.5t-41 8.5zM226 635q-10 5 -21 9.5t-27 4.5q-17 0 -31 -9t-20 -12q-3 -3 -9 -3q-4 0 -9.5 5t-21.5 31q-4 6 -4 9q0 5 11 11q4 3 12.5 8t19.5 10t24.5 8.5t27.5 3.5
q16 0 27.5 -4.5t22.5 -9.5t22.5 -9.5t27.5 -4.5t30.5 9.5t20.5 13.5q2 1 4.5 2t4.5 1q4 0 9 -5.5t22 -30.5q3 -4 3 -9q0 -4 -2.5 -5.5t-7.5 -6.5q-3 -3 -11.5 -8t-20 -10.5t-25 -9t-27.5 -3.5q-17 0 -29 4.5t-23 9.5z" />
    <glyph glyph-name="odieresis" unicode="&#xf6;" horiz-adv-x="454" 
d="M227 -15q-39 0 -71.5 14t-56.5 38t-37.5 55t-13.5 65v221q0 34 13.5 65t37.5 55t56.5 38t71.5 14t71.5 -14t56.5 -38t37.5 -55t13.5 -65v-221q0 -34 -13.5 -65t-37.5 -55t-56.5 -38t-71.5 -14zM227 483q-22 0 -41 -8.5t-33 -22.5t-22 -33.5t-8 -40.5v-221q0 -21 8 -40.5
t22 -33.5t33 -22.5t41 -8.5t41 8.5t33 22.5t22 33.5t8 40.5v221q0 21 -8 40.5t-22 33.5t-33 22.5t-41 8.5zM196 642q0 -8 -5 -13t-13 -5h-60q-8 0 -13 5t-5 13v49q0 8 5 13t13 5h60q8 0 13 -5t5 -13v-49zM355 642q0 -8 -5 -13t-13 -5h-60q-8 0 -13 5t-5 13v49q0 8 5 13t13 5
h60q8 0 13 -5t5 -13v-49z" />
    <glyph glyph-name="divide" unicode="&#xf7;" 
d="M468 307q8 0 13 -5t5 -13v-36q0 -8 -5 -13t-13 -5h-363q-8 0 -13 5t-5 13v36q0 8 5 13t13 5h363zM329 433q0 -8 -5 -13t-13 -5h-52q-8 0 -13 5t-5 13v43q0 8 5 13t13 5h52q8 0 13 -5t5 -13v-43zM329 61q0 -8 -5 -13t-13 -5h-52q-8 0 -13 5t-5 13v43q0 8 5 13t13 5h52
q8 0 13 -5t5 -13v-43z" />
    <glyph glyph-name="oslash" unicode="&#xf8;" horiz-adv-x="444" 
d="M104 -5q-3 -10 -14 -10q-6 0 -10 3l-27 15q-9 6 -9 15q0 7 2 10l24 42q-25 41 -25 87v221q0 34 13.5 65t37.5 55t56.5 38t71.5 14q56 0 100 -30l18 31q2 5 6.5 7t9.5 2q6 0 9 -2l27 -16q8 -5 8 -14q0 -7 -2 -10l-26 -46q14 -21 21.5 -44.5t7.5 -49.5v-221
q0 -34 -13.5 -65t-37.5 -55t-56.5 -38t-71.5 -14q-31 0 -57.5 9t-49.5 25zM224 52q22 0 41 8.5t33 22.5t22 33.5t8 40.5v221q0 8 -1 11l-175 -308q14 -14 32.5 -21.5t39.5 -7.5zM224 483q-22 0 -41 -8.5t-33 -22.5t-22 -33.5t-8 -40.5v-220l170 301q-29 24 -66 24z" />
    <glyph glyph-name="ugrave" unicode="&#xf9;" horiz-adv-x="452" 
d="M321 517q0 8 5 13t13 5h38q8 0 13 -5t5 -13v-499q0 -8 -5 -13t-13 -5h-38q-8 0 -13 5t-5 13v47q-17 -33 -44 -57t-74 -24q-29 0 -56.5 11t-48.5 32t-34 52.5t-13 72.5v365q0 8 5 13t13 5h39q8 0 13 -5t5 -13v-342q0 -21 3.5 -42.5t13.5 -39.5t29 -29.5t49 -11.5
q31 0 50.5 13t30.5 32t15 40.5t4 37.5v342zM139 704q-2 4 -2 6q0 6 5 10.5t12 4.5h49q9 0 16 -6.5t11 -14.5l31 -70q3 -5 3 -11q0 -16 -18 -16h-24q-11 0 -16 3.5t-12 12.5z" />
    <glyph glyph-name="uacute" unicode="&#xfa;" horiz-adv-x="452" 
d="M321 517q0 8 5 13t13 5h38q8 0 13 -5t5 -13v-499q0 -8 -5 -13t-13 -5h-38q-8 0 -13 5t-5 13v47q-17 -33 -44 -57t-74 -24q-29 0 -56.5 11t-48.5 32t-34 52.5t-13 72.5v365q0 8 5 13t13 5h39q8 0 13 -5t5 -13v-342q0 -21 3.5 -42.5t13.5 -39.5t29 -29.5t49 -11.5
q31 0 50.5 13t30.5 32t15 40.5t4 37.5v342zM253 623q-7 -9 -12 -12.5t-16 -3.5h-24q-18 0 -18 16q0 6 3 11l31 70q4 8 11 14.5t16 6.5h49q7 0 12 -4.5t5 -10.5q0 -2 -2 -6z" />
    <glyph glyph-name="ucircumflex" unicode="&#xfb;" horiz-adv-x="452" 
d="M321 517q0 8 5 13t13 5h38q8 0 13 -5t5 -13v-499q0 -8 -5 -13t-13 -5h-38q-8 0 -13 5t-5 13v47q-17 -33 -44 -57t-74 -24q-29 0 -56.5 11t-48.5 32t-34 52.5t-13 72.5v365q0 8 5 13t13 5h39q8 0 13 -5t5 -13v-342q0 -21 3.5 -42.5t13.5 -39.5t29 -29.5t49 -11.5
q31 0 50.5 13t30.5 32t15 40.5t4 37.5v342zM245 732q10 0 14 -5t9 -11l62 -93q3 -5 3 -9q0 -7 -12 -7h-42q-8 0 -15 9l-42 53l-42 -53q-4 -5 -7 -7t-8 -2h-42q-12 0 -12 7q0 4 3 9l62 93q5 6 9 11t14 5h46z" />
    <glyph glyph-name="udieresis" unicode="&#xfc;" horiz-adv-x="452" 
d="M321 517q0 8 5 13t13 5h38q8 0 13 -5t5 -13v-499q0 -8 -5 -13t-13 -5h-38q-8 0 -13 5t-5 13v47q-17 -33 -44 -57t-74 -24q-29 0 -56.5 11t-48.5 32t-34 52.5t-13 72.5v365q0 8 5 13t13 5h39q8 0 13 -5t5 -13v-342q0 -21 3.5 -42.5t13.5 -39.5t29 -29.5t49 -11.5
q31 0 50.5 13t30.5 32t15 40.5t4 37.5v342zM195 640q0 -8 -5 -13t-13 -5h-60q-8 0 -13 5t-5 13v49q0 8 5 13t13 5h60q8 0 13 -5t5 -13v-49zM354 640q0 -8 -5 -13t-13 -5h-60q-8 0 -13 5t-5 13v49q0 8 5 13t13 5h60q8 0 13 -5t5 -13v-49z" />
    <glyph glyph-name="yacute" unicode="&#xfd;" horiz-adv-x="461" 
d="M104 -184q-8 0 -13 5t-5 13v33q0 8 5 13t13 5h45q29 0 41 9.5t12 26.5q0 8 -2 17.5t-5 20.5l-168 554q-1 3 -1 6q0 16 15 16h42q15 0 19 -16l135 -470l123 470q4 16 19 16h41q15 0 15 -16q0 -3 -1 -6l-166 -607q-8 -30 -20.5 -48t-28.5 -27.5t-34.5 -12t-38.5 -2.5h-42z
M246 621q-7 -9 -12 -12.5t-16 -3.5h-24q-18 0 -18 16q0 6 3 11l31 70q4 8 11 14.5t16 6.5h49q7 0 12 -4.5t5 -10.5q0 -2 -2 -6z" />
    <glyph glyph-name="thorn" unicode="&#xfe;" horiz-adv-x="453" 
d="M328 381q0 45 -27 73.5t-72 28.5q-21 0 -39 -8.5t-30.5 -23t-19.5 -33t-7 -37.5v-227q0 -20 7 -38t19.5 -32.5t30.5 -23t39 -8.5q45 0 72 28.5t27 73.5v227zM55 691q0 8 5 13t13 5h42q8 0 13 -5t5 -13v-215q15 30 46.5 52t73.5 22q26 0 52.5 -10.5t48.5 -30.5t35.5 -50
t13.5 -70v-244q0 -40 -13.5 -70t-35.5 -50.5t-48.5 -30.5t-52.5 -10q-42 0 -73.5 22t-46.5 52v-224q0 -8 -5 -13t-13 -5h-42q-8 0 -13 5t-5 13v857z" />
    <glyph glyph-name="ydieresis" unicode="&#xff;" horiz-adv-x="461" 
d="M104 -184q-8 0 -13 5t-5 13v33q0 8 5 13t13 5h45q29 0 41 9.5t12 26.5q0 8 -2 17.5t-5 20.5l-168 554q-1 3 -1 6q0 16 15 16h42q15 0 19 -16l135 -470l123 470q4 16 19 16h41q15 0 15 -16q0 -3 -1 -6l-166 -607q-8 -30 -20.5 -48t-28.5 -27.5t-34.5 -12t-38.5 -2.5h-42z
M200 640q0 -8 -5 -13t-13 -5h-60q-8 0 -13 5t-5 13v49q0 8 5 13t13 5h60q8 0 13 -5t5 -13v-49zM359 640q0 -8 -5 -13t-13 -5h-60q-8 0 -13 5t-5 13v49q0 8 5 13t13 5h60q8 0 13 -5t5 -13v-49z" />
    <glyph glyph-name="dotlessi" unicode="&#x131;" horiz-adv-x="196" 
d="M61 517q0 8 5 13t13 5h38q8 0 13 -5t5 -13v-499q0 -8 -5 -13t-13 -5h-38q-8 0 -13 5t-5 13v499z" />
    <glyph glyph-name="Lslash" unicode="&#x141;" horiz-adv-x="413" 
d="M81 251l-48 -56q-6 -7 -16 -7q-9 0 -14 5l-26 22q-8 6 -8 16q0 9 5 14l107 125v321q0 8 5 13t13 5h44q8 0 13 -5t5 -13v-232l74 87q6 7 16 7q9 0 14 -5l26 -22q8 -8 8 -17q0 -8 -5 -13l-133 -156v-268h234q8 0 13 -5t5 -13v-36q0 -8 -5 -13t-13 -5h-296q-8 0 -13 5t-5 13
v233z" />
    <glyph glyph-name="lslash" unicode="&#x142;" horiz-adv-x="306" 
d="M118 691q0 8 5 13t13 5h38q8 0 13 -5t5 -13v-227l73 85q6 7 16 7q9 0 14 -5l26 -22q8 -6 8 -17q0 -8 -5 -13l-132 -154v-327q0 -8 -5 -13t-13 -5h-38q-8 0 -13 5t-5 13v243l-63 -73q-6 -7 -16 -7q-9 0 -14 5l-26 22q-8 6 -8 17q0 8 5 13l122 142v311z" />
    <glyph glyph-name="OE" unicode="&#x152;" horiz-adv-x="749" 
d="M250 52q52 0 83 33t31 87v363q0 54 -31 87.5t-83 33.5t-83 -33.5t-31 -87.5v-363q0 -54 31 -87t83 -33zM446 637v-221h204q8 0 13 -5t5 -13v-36q0 -8 -5 -13t-13 -5h-204v-272h250q8 0 13 -5t5 -13v-36q0 -8 -5 -13t-13 -5h-349q-41 -22 -97 -22q-41 0 -77 13.5t-62.5 39
t-41.5 61.5t-15 80v363q0 44 15 80t41.5 61.5t62.5 39.5t77 14q26 0 49.5 -5.5t43.5 -15.5h349q8 0 13 -5t5 -13v-36q0 -8 -5 -13t-13 -5h-246z" />
    <glyph glyph-name="oe" unicode="&#x153;" horiz-adv-x="731" 
d="M618 314v64q0 21 -8.5 40.5t-23 33.5t-33.5 22.5t-41 8.5q-23 0 -42 -8.5t-33.5 -22.5t-22.5 -33.5t-8 -40.5v-64h212zM370 53q-24 -31 -61 -49.5t-82 -18.5q-39 0 -71.5 14t-56.5 38t-37.5 55t-13.5 65v221q0 34 13.5 65t37.5 55t56.5 38t71.5 14q45 0 82 -18.5
t61 -49.5q24 31 60.5 49.5t81.5 18.5q39 0 71.5 -14t56.5 -38t37.5 -55t13.5 -65v-108q0 -8 -5 -13t-13 -5h-267v-95q0 -21 8 -40.5t22.5 -33.5t33.5 -22.5t42 -8.5q21 0 39.5 7.5t33 21t23 31t8.5 37.5v8q0 8 5 13t13 5h39q8 0 13 -5t5 -13v-8q0 -33 -14 -63t-38 -52.5
t-57 -35.5t-70 -13q-45 0 -81.5 18.5t-60.5 49.5zM227 483q-22 0 -41 -8.5t-33 -22.5t-22 -33.5t-8 -40.5v-221q0 -21 8 -40.5t22 -33.5t33 -22.5t41 -8.5t41 8.5t33 22.5t22 33.5t8 40.5v221q0 21 -8 40.5t-22 33.5t-33 22.5t-41 8.5z" />
    <glyph glyph-name="Scaron" unicode="&#x160;" horiz-adv-x="466" 
d="M116 175q0 -26 8.5 -47.5t24.5 -37.5t37 -25t47 -9q27 0 48.5 9t36.5 25t23 36t8 43v18q0 17 -3 29.5t-11 23t-21.5 21t-34.5 24.5l-157 102q-45 29 -64.5 66t-19.5 85q0 40 13 75t38 61t62 41t84 15t83.5 -15t61.5 -41t38 -61t13 -75v-8q0 -8 -5 -13t-13 -5h-45
q-8 0 -13 5t-5 13v15q0 45 -29 78t-86 33q-60 0 -88.5 -33t-28.5 -78v-18q0 -33 22.5 -53t59.5 -43l146 -92q48 -31 66 -68.5t18 -91.5q0 -41 -14.5 -77t-40.5 -63t-62.5 -42.5t-79.5 -15.5q-42 0 -78 15t-63 40t-42 58.5t-15 69.5v42q0 8 5 13t13 5h45q8 0 13 -5t5 -13v-31
zM216 762q-8 0 -12 5.5t-9 11.5l-80 108q-2 6 -2 9q0 12 14 12h26q7 0 12 -4.5t10 -11.5l58 -67l58 67q5 7 10 11.5t12 4.5h26q14 0 14 -12q0 -3 -2 -9l-80 -108q-5 -6 -9 -11.5t-12 -5.5h-34z" />
    <glyph glyph-name="scaron" unicode="&#x161;" horiz-adv-x="426" 
d="M316 262q31 -16 51.5 -43.5t20.5 -75.5q0 -30 -11.5 -58.5t-33.5 -50.5t-54.5 -35.5t-74.5 -13.5t-75 13.5t-56 36t-35 53t-12 64.5v6q0 8 5 13t13 5h36q8 0 13 -5t5 -13v-4q0 -48 28 -75t78 -27q28 0 48 8t33 20.5t19 28t6 30.5q0 22 -10 37t-39 29l-147 74
q-80 40 -80 123q0 69 46 108.5t119 39.5q34 0 65 -9.5t55 -27.5t38.5 -45t16.5 -61v-11q0 -5 -2 -10q-2 -6 -5 -12t-11 -6h-34q-8 0 -13 5t-5 13v4q0 29 -10 47t-25 28.5t-33.5 14t-35.5 3.5q-19 0 -37 -4.5t-31.5 -13.5t-22 -23.5t-8.5 -34.5q0 -23 11.5 -38.5t35.5 -27.5z
M204 600q-8 0 -12 5.5t-9 11.5l-80 108q-2 6 -2 9q0 12 14 12h26q7 0 12 -4.5t10 -11.5l58 -67l58 67q5 7 10 11.5t12 4.5h26q14 0 14 -12q0 -3 -2 -9l-80 -108q-5 -6 -9 -11.5t-12 -5.5h-34z" />
    <glyph glyph-name="Ydieresis" unicode="&#x178;" horiz-adv-x="520" 
d="M220 331l-187 355q-2 4 -2 7q0 16 17 16h41q9 0 14 -4t13 -19l144 -265l144 265q8 15 13 19t14 4h41q17 0 17 -16q0 -3 -2 -7l-187 -355v-313q0 -8 -5 -13t-13 -5h-44q-8 0 -13 5t-5 13v313zM220 809q0 -8 -5 -13t-13 -5h-60q-8 0 -13 5t-5 13v49q0 8 5 13t13 5h60
q8 0 13 -5t5 -13v-49zM379 809q0 -8 -5 -13t-13 -5h-60q-8 0 -13 5t-5 13v49q0 8 5 13t13 5h60q8 0 13 -5t5 -13v-49z" />
    <glyph glyph-name="florin" unicode="&#x192;" horiz-adv-x="556" 
d="M141 -184q-8 0 -13 5t-5 13v34q0 8 5 13t13 5h23q43 0 55.5 16.5t12.5 54.5v450h-60q-8 0 -13 5t-5 13v34q0 8 5 13t13 5h60v113q0 53 34 86t97 33h50q8 0 13 -5t5 -13v-34q0 -8 -5 -13t-13 -5h-39q-43 0 -55.5 -16.5t-12.5 -54.5v-91h108q8 0 13 -5t5 -13v-34
q0 -8 -5 -13t-13 -5h-108v-472q0 -53 -33.5 -86t-96.5 -33h-35z" />
    <glyph glyph-name="circumflex" unicode="&#x2c6;" horiz-adv-x="415" 
d="M230 740q10 0 14 -5t9 -11l62 -93q3 -5 3 -9q0 -7 -12 -7h-42q-8 0 -15 9l-42 53l-42 -53q-4 -5 -7 -7t-8 -2h-42q-12 0 -12 7q0 4 3 9l62 93q5 6 9 11t14 5h46z" />
    <glyph glyph-name="caron" unicode="&#x2c7;" horiz-adv-x="415" 
d="M190 607q-8 0 -12 5.5t-9 11.5l-80 108q-2 6 -2 9q0 12 14 12h26q7 0 12 -4.5t10 -11.5l58 -67l58 67q5 7 10 11.5t12 4.5h26q14 0 14 -12q0 -3 -2 -9l-80 -108q-5 -6 -9 -11.5t-12 -5.5h-34z" />
    <glyph glyph-name="breve" unicode="&#x2d8;" horiz-adv-x="439" 
d="M190 605q-17 0 -38.5 13t-41 31t-32.5 37.5t-13 32.5q0 8 5.5 12t11.5 4h42q16 0 23 -8t12 -16q8 -13 21.5 -25t38.5 -12t38.5 12t21.5 25q5 8 12 16t23 8h42q6 0 11.5 -4t5.5 -12q0 -13 -13 -32.5t-32.5 -37.5t-41 -31t-38.5 -13h-58z" />
    <glyph glyph-name="dotaccent" unicode="&#x2d9;" horiz-adv-x="236" 
d="M171 617q0 -8 -6.5 -14.5t-15.5 -6.5h-63q-9 0 -15.5 6.5t-6.5 14.5v51q0 9 6.5 15t15.5 6h63q9 0 15.5 -6t6.5 -15v-51z" />
    <glyph glyph-name="ring" unicode="&#x2da;" horiz-adv-x="298" 
d="M264 675q0 -24 -9 -45t-25 -36.5t-37 -25t-45 -9.5q-23 0 -44 9.5t-36.5 25t-24.5 36.5t-9 45q0 23 9 44t24.5 36.5t36.5 25t44 9.5q24 0 45 -9.5t37 -25t25 -36.5t9 -44zM223 675q0 29 -21.5 51.5t-53.5 22.5t-52.5 -22.5t-20.5 -51.5q0 -15 5.5 -28.5t15 -24t23 -16.5
t29.5 -6q32 0 53.5 23t21.5 52z" />
    <glyph glyph-name="ogonek" unicode="&#x2db;" horiz-adv-x="385" 
d="M289 -161q0 -6 -3 -10q-16 -17 -38.5 -32t-53.5 -15q-49 0 -74 27t-25 64q0 20 6.5 37t16.5 30t22.5 21.5t24.5 11.5q16 4 29 4.5t27 0.5q19 0 19 -12v-18q0 -5 -2.5 -8t-12.5 -3q-37 0 -57.5 -16t-20.5 -49q0 -27 15.5 -37t32.5 -10q14 0 27.5 7.5t29.5 27.5
q3 5 5.5 5.5t4.5 0.5q6 0 9 -3l11 -9q7 -7 7 -15z" />
    <glyph glyph-name="tilde" unicode="&#x2dc;" horiz-adv-x="448" 
d="M222 643q-10 5 -21 9.5t-27 4.5q-17 0 -31 -9t-20 -12q-3 -3 -9 -3q-4 0 -9.5 5t-21.5 31q-4 6 -4 9q0 5 11 11q4 3 12.5 8t19.5 10t24.5 8.5t27.5 3.5q16 0 27.5 -4.5t22.5 -9.5t22.5 -9.5t27.5 -4.5t30.5 9.5t20.5 13.5q2 1 4.5 2t4.5 1q4 0 9 -5.5t22 -30.5q3 -4 3 -9
q0 -4 -2.5 -5.5t-7.5 -6.5q-3 -3 -11.5 -8t-20 -10.5t-25 -9t-27.5 -3.5q-17 0 -29 4.5t-23 9.5z" />
    <glyph glyph-name="hungarumlaut" unicode="&#x2dd;" horiz-adv-x="473" 
d="M155 638q-7 -9 -12 -12.5t-16 -3.5h-24q-18 0 -18 16q0 6 3 11l31 70q4 8 11 14.5t16 6.5h49q7 0 12 -4.5t5 -10.5q0 -2 -2 -6zM330 638q-7 -9 -12 -12.5t-16 -3.5h-24q-18 0 -18 16q0 6 3 11l31 70q4 8 11 14.5t16 6.5h49q7 0 12 -4.5t5 -10.5q0 -2 -2 -6z" />
    <glyph glyph-name="Omega" unicode="&#x3a9;" horiz-adv-x="698" 
d="M349 653q-100 0 -152.5 -60.5t-52.5 -178.5q0 -65 6 -114.5t20.5 -86.5t38.5 -63.5t60 -45.5q18 -10 24.5 -12.5t11.5 -5.5q8 -5 8 -15v-53q0 -8 -5 -13t-13 -5h-218q-8 0 -13 5t-5 13v33q0 8 5 13t13 5h113q-36 20 -60.5 48.5t-40 70t-22.5 97t-7 129.5q0 65 16 123
t51 101.5t90 68.5t132 25t132 -25t90 -68.5t51 -101.5t16 -123q0 -74 -7 -129.5t-22.5 -97t-40 -70t-60.5 -48.5h113q8 0 13 -5t5 -13v-33q0 -8 -5 -13t-13 -5h-218q-8 0 -13 5t-5 13v53q0 10 8 15q5 3 11.5 5.5t24.5 12.5q36 19 60 45.5t38.5 63.5t20.5 86.5t6 114.5
q0 118 -52.5 178.5t-152.5 60.5z" />
    <glyph glyph-name="pi" unicode="&#x3c0;" horiz-adv-x="548" 
d="M487 69q8 0 13 -5t5 -13v-33q0 -8 -5 -13t-13 -5h-15q-23 0 -42.5 8t-33.5 22t-22.5 32.5t-8.5 40.5v363h-185v-448q0 -8 -5 -13t-13 -5h-38q-8 0 -13 5t-5 13v448h-71q-8 0 -13 5t-5 13v33q0 8 5 13t13 5h478q8 0 13 -5t5 -13v-33q0 -8 -5 -13t-13 -5h-74v-347
q0 -20 14 -35t34 -15z" />
    <glyph glyph-name="endash" unicode="&#x2013;" horiz-adv-x="529" 
d="M476 304q8 0 13 -5t5 -13v-36q0 -8 -5 -13t-13 -5h-423q-8 0 -13 5t-5 13v36q0 8 5 13t13 5h423z" />
    <glyph glyph-name="emdash" unicode="&#x2014;" horiz-adv-x="651" 
d="M598 304q8 0 13 -5t5 -13v-36q0 -8 -5 -13t-13 -5h-525q-8 0 -13 5t-5 13v36q0 8 5 13t13 5h525z" />
    <glyph glyph-name="quoteleft" unicode="&#x2018;" horiz-adv-x="202" 
d="M122 666q-14 -2 -22.5 -15t-8.5 -28q0 -23 20 -25h28q8 0 13 -5t5 -13v-57q0 -8 -5 -13t-13 -5h-71q-8 0 -13 5t-5 13v75q0 38 16.5 68.5t50.5 35.5h9q11 0 11 -10v-15q0 -11 -11 -11h-4z" />
    <glyph glyph-name="quoteright" unicode="&#x2019;" horiz-adv-x="202" 
d="M60 548q14 2 22.5 15t8.5 28q0 23 -20 25h-28q-8 0 -13 5t-5 13v57q0 8 5 13t13 5h71q8 0 13 -5t5 -13v-75q0 -38 -16.5 -68.5t-50.5 -35.5h-9q-11 0 -11 10v15q0 11 11 11h4z" />
    <glyph glyph-name="quotesinglbase" unicode="&#x201a;" horiz-adv-x="227" 
d="M90 -68q14 2 22.5 15t8.5 28q0 23 -20 25h-28q-8 0 -13 5t-5 13v57q0 8 5 13t13 5h71q8 0 13 -5t5 -13v-75q0 -38 -16.5 -68.5t-50.5 -35.5h-9q-11 0 -11 10v15q0 11 11 11h4z" />
    <glyph glyph-name="quotedblleft" unicode="&#x201c;" horiz-adv-x="408" 
d="M117 666q-14 -2 -22.5 -15t-8.5 -28q0 -23 20 -25h28q8 0 13 -5t5 -13v-57q0 -8 -5 -13t-13 -5h-71q-8 0 -13 5t-5 13v75q0 38 16.5 68.5t50.5 35.5h9q11 0 11 -10v-15q0 -11 -11 -11h-4zM298 666q-14 -2 -22.5 -15t-8.5 -28q0 -23 20 -25h28q8 0 13 -5t5 -13v-57
q0 -8 -5 -13t-13 -5h-71q-8 0 -13 5t-5 13v75q0 38 16.5 68.5t50.5 35.5h9q11 0 11 -10v-15q0 -11 -11 -11h-4z" />
    <glyph glyph-name="quotedblright" unicode="&#x201d;" horiz-adv-x="408" 
d="M90 548q14 2 22.5 15t8.5 28q0 23 -20 25h-28q-8 0 -13 5t-5 13v57q0 8 5 13t13 5h71q8 0 13 -5t5 -13v-75q0 -38 -16.5 -68.5t-50.5 -35.5h-9q-11 0 -11 10v15q0 11 11 11h4zM271 548q14 2 22.5 15t8.5 28q0 23 -20 25h-28q-8 0 -13 5t-5 13v57q0 8 5 13t13 5h71
q8 0 13 -5t5 -13v-75q0 -38 -16.5 -68.5t-50.5 -35.5h-9q-11 0 -11 10v15q0 11 11 11h4z" />
    <glyph glyph-name="quotedblbase" unicode="&#x201e;" horiz-adv-x="407" 
d="M90 -68q14 2 22.5 15t8.5 28q0 23 -20 25h-28q-8 0 -13 5t-5 13v57q0 8 5 13t13 5h71q8 0 13 -5t5 -13v-75q0 -38 -16.5 -68.5t-50.5 -35.5h-9q-11 0 -11 10v15q0 11 11 11h4zM270 -68q14 2 22.5 15t8.5 28q0 23 -20 25h-28q-8 0 -13 5t-5 13v57q0 8 5 13t13 5h71
q8 0 13 -5t5 -13v-75q0 -38 -16.5 -68.5t-50.5 -35.5h-9q-11 0 -11 10v15q0 11 11 11h4z" />
    <glyph glyph-name="dagger" unicode="&#x2020;" horiz-adv-x="425" 
d="M65 444q-8 0 -13 5t-5 13v36q0 8 5 13t13 5h109v196q0 8 5 13t13 5h44q8 0 13 -5t5 -13v-196h106q8 0 13 -5t5 -13v-36q0 -8 -5 -13t-13 -5h-106v-426q0 -8 -5 -13t-13 -5h-44q-8 0 -13 5t-5 13v426h-109z" />
    <glyph glyph-name="daggerdbl" unicode="&#x2021;" horiz-adv-x="425" 
d="M65 82q-8 0 -13 5t-5 13v36q0 8 5 13t13 5h109v290h-109q-8 0 -13 5t-5 13v36q0 8 5 13t13 5h109v196q0 8 5 13t13 5h44q8 0 13 -5t5 -13v-196h106q8 0 13 -5t5 -13v-36q0 -8 -5 -13t-13 -5h-106v-290h106q8 0 13 -5t5 -13v-36q0 -8 -5 -13t-13 -5h-106v-190q0 -8 -5 -13
t-13 -5h-44q-8 0 -13 5t-5 13v190h-109z" />
    <glyph glyph-name="bullet" unicode="&#x2022;" horiz-adv-x="314" 
d="M45 268q0 23 9 43t24 35t35 24t43 9t43 -9t35 -24t24 -35t9 -43t-9 -43t-24 -35t-35 -24t-43 -9t-43 9t-35 24t-24 35t-9 43z" />
    <glyph glyph-name="ellipsis" unicode="&#x2026;" horiz-adv-x="685" 
d="M396 18q0 -8 -5 -13t-13 -5h-71q-8 0 -13 5t-5 13v57q0 8 5 13t13 5h71q8 0 13 -5t5 -13v-57zM172 18q0 -8 -5 -13t-13 -5h-71q-8 0 -13 5t-5 13v57q0 8 5 13t13 5h71q8 0 13 -5t5 -13v-57zM620 18q0 -8 -5 -13t-13 -5h-71q-8 0 -13 5t-5 13v57q0 8 5 13t13 5h71
q8 0 13 -5t5 -13v-57z" />
    <glyph glyph-name="perthousand" unicode="&#x2030;" horiz-adv-x="901" 
d="M117 468q0 -24 15.5 -40.5t41.5 -16.5t41 16.5t15 40.5v122q0 24 -15 40.5t-41 16.5t-41.5 -16.5t-15.5 -40.5v-122zM53 590q0 30 11.5 52.5t29.5 37t39 22t41 7.5q19 0 40.5 -7.5t39 -22t29 -37t11.5 -52.5v-122q0 -30 -11.5 -52.5t-29 -37t-39 -22t-40.5 -7.5
q-20 0 -41 7.5t-39 22t-29.5 37t-11.5 52.5v122zM493 97q0 -24 15.5 -40.5t41.5 -16.5t41 16.5t15 40.5v122q0 24 -15 40.5t-41 16.5t-41.5 -16.5t-15.5 -40.5v-122zM637 15q-18 -19 -41.5 -28t-45.5 -9q-20 0 -41 7.5t-39 22t-29.5 37t-11.5 52.5v122q0 30 11.5 52.5
t29.5 37t39 22t41 7.5q23 0 47 -9.5t42 -29.5q19 18 42.5 27.5t45.5 9.5q19 0 40.5 -7.5t39 -22t29 -37t11.5 -52.5v-122q0 -30 -11.5 -52.5t-29 -37t-39 -22t-40.5 -7.5q-23 0 -47 9.5t-43 29.5zM670 95q0 -24 15.5 -40.5t41.5 -16.5t41 16.5t15 40.5v122q0 24 -15 40.5
t-41 16.5t-41.5 -16.5t-15.5 -40.5v-122zM528 696q0 -2 -2 -8l-282 -737q-5 -15 -10.5 -18t-13.5 -3h-30q-14 0 -14 14q0 2 2 8l282 737q5 14 11 17t14 3h30q13 0 13 -13z" />
    <glyph glyph-name="guilsinglleft" unicode="&#x2039;" horiz-adv-x="339" 
d="M127 261l122 -112l14 -14q6 -6 6 -16v-41q0 -7 -5.5 -12t-11.5 -5q-3 0 -8 1.5t-9 4.5l-166 156q-5 5 -9.5 10t-4.5 14v28q0 9 4.5 14t9.5 10l166 156q4 3 9 4.5t8 1.5q6 0 11.5 -5t5.5 -12v-41q0 -10 -6 -16l-14 -14z" />
    <glyph glyph-name="guilsinglright" unicode="&#x203a;" horiz-adv-x="339" 
d="M90 373l-14 14q-6 6 -6 16v41q0 7 5.5 12t11.5 5q3 0 8 -1.5t9 -4.5l166 -156q5 -5 9.5 -10t4.5 -14v-28q0 -9 -4.5 -14t-9.5 -10l-166 -156q-4 -3 -9 -4.5t-8 -1.5q-6 0 -11.5 5t-5.5 12v41q0 10 6 16l14 14l122 112z" />
    <glyph glyph-name="fraction" unicode="&#x2044;" horiz-adv-x="380" 
d="M360 718q0 -2 -2 -8l-270 -704q-5 -15 -10.5 -18t-13.5 -3h-30q-14 0 -14 14q0 2 2 8l270 704q5 14 11 17t14 3h30q13 0 13 -13z" />
    <glyph glyph-name="Euro" unicode="&#x20ac;" horiz-adv-x="556" 
d="M325 307q8 0 13 -5t5 -13v-36q0 -8 -5 -13t-13 -5h-138q4 -54 19.5 -89t37 -56t46 -29.5t48.5 -8.5q45 0 75 19t43 55q4 10 10.5 13.5t14.5 3.5q6 0 12 -2l27 -6q8 -2 13 -8t5 -14q0 -6 -2 -10q-8 -24 -23.5 -46.5t-40.5 -39.5t-58.5 -27.5t-75.5 -10.5q-56 0 -98.5 18.5
t-71.5 52.5t-46 81t-23 104h-64q-8 0 -13 5t-5 13v36q0 8 5 13t13 5h60v84h-60q-8 0 -13 5t-5 13v36q0 8 5 13t13 5h63q4 59 20.5 108.5t46 85t72.5 55.5t101 20q42 0 75.5 -10.5t58.5 -27.5t40.5 -39.5t23.5 -46.5q2 -4 2 -10q0 -8 -5 -14t-13 -8l-27 -6q-6 -2 -12 -2
q-8 0 -14.5 3.5t-10.5 13.5q-13 36 -43 55t-75 19q-24 0 -50 -10t-48 -32.5t-36.5 -60.5t-17.5 -93h192q8 0 13 -5t5 -13v-36q0 -8 -5 -13t-13 -5h-195v-84h142z" />
    <glyph glyph-name="trademark" unicode="&#x2122;" horiz-adv-x="682" 
d="M193 380q0 -5 -4 -9.5t-10 -4.5h-38q-5 0 -9 4.5t-4 9.5v271h-71q-6 0 -10 3.5t-4 8.5v32q0 13 14 13h207q13 0 13 -13v-31q0 -5 -3.5 -8.5t-9.5 -3.5h-71v-272zM542 693q5 16 13 16h71q5 0 9 -4.5t4 -9.5v-315q0 -5 -4 -9.5t-9 -4.5h-33q-5 0 -9 4.5t-4 9.5v254
l-85 -252q-2 -6 -7.5 -11t-12.5 -5t-12.5 5t-7.5 11l-85 252v-254q0 -5 -4 -9.5t-9 -4.5h-33q-5 0 -9 4.5t-4 9.5v315q0 5 4 9.5t9 4.5h71q8 0 13 -16l67 -209z" />
    <glyph glyph-name="partialdiff" unicode="&#x2202;" horiz-adv-x="648" 
d="M172 628q37 56 91 94t129 38q46 0 85 -17t67 -50t43.5 -81t15.5 -111q0 -97 -23 -191t-69 -167.5t-115 -118.5t-161 -45q-39 0 -72 14t-57.5 39t-38 58.5t-13.5 71.5q0 87 39 148t101 99.5t139.5 55.5t154.5 17h18q9 0 18 -1v45q0 33 -8 62.5t-25 51t-43.5 34t-65.5 12.5
q-41 0 -79 -24.5t-67 -77.5q-5 -8 -16 -8q-6 0 -10 3l-33 24q-8 6 -8 15q0 5 3 10zM468 407q-59 0 -118.5 -13.5t-107 -42.5t-77.5 -75.5t-30 -112.5q0 -51 30 -79t92 -28q43 0 85 24.5t78 70.5t62 111t37 145h-51z" />
    <glyph glyph-name="Delta" unicode="&#x2206;" horiz-adv-x="536" 
d="M59 0q-11 0 -21 6.5t-10 17.5q0 7 1 12l180 643q4 13 12 21.5t20 8.5h53q12 0 20 -8.5t12 -21.5l180 -643q1 -5 1 -12q0 -11 -10 -17.5t-21 -6.5h-417zM420 69l-152 573l-152 -573h304z" />
    <glyph glyph-name="product" unicode="&#x220f;" horiz-adv-x="522" 
d="M462 709q8 0 13 -5t5 -13v-728q0 -8 -5 -13t-13 -5h-44q-8 0 -13 5t-5 13v674h-278v-674q0 -8 -5 -13t-13 -5h-44q-8 0 -13 5t-5 13v728q0 8 5 13t13 5h402z" />
    <glyph glyph-name="summation" unicode="&#x2211;" horiz-adv-x="547" 
d="M66 602q-6 9 -8.5 16.5t-2.5 26.5v46q0 8 5 13t13 5h408q8 0 13 -5t5 -13v-36q0 -8 -5 -13t-13 -5h-351l223 -281q4 -5 6.5 -10.5t2.5 -16.5t-2.5 -16.5t-6.5 -10.5l-223 -281h351q8 0 13 -5t5 -13v-36q0 -8 -5 -13t-13 -5h-408q-8 0 -13 5t-5 13v46q0 19 2.5 26.5
t8.5 16.5l216 273z" />
    <glyph glyph-name="minus" unicode="&#x2212;" 
d="M468 304q8 0 13 -5t5 -13v-36q0 -8 -5 -13t-13 -5h-363q-8 0 -13 5t-5 13v36q0 8 5 13t13 5h363z" />
    <glyph glyph-name="radical" unicode="&#x221a;" horiz-adv-x="747" 
d="M730 894q8 0 13 -5t5 -13v-36q0 -8 -5 -13t-13 -5h-199l-189 -804q-2 -8 -6 -13t-12 -5h-97q-8 0 -12 5t-6 13l-68 290h-73q-8 0 -13 5t-5 13v36q0 8 5 13t13 5h106q9 0 16.5 -6.5t9.5 -15.5l74 -317l197 831q2 9 9.5 15.5t16.5 6.5h233z" />
    <glyph glyph-name="infinity" unicode="&#x221e;" horiz-adv-x="832" 
d="M121 319q0 -48 24.5 -81.5t69.5 -33.5q21 0 39 7t36.5 21t38.5 35.5t46 51.5q-26 30 -46 51.5t-38.5 35.5t-36.5 21t-39 7q-45 0 -69.5 -33.5t-24.5 -81.5zM711 319q0 48 -24.5 81.5t-69.5 33.5q-21 0 -39 -7t-36.5 -21t-39 -35.5t-45.5 -51.5q25 -30 45.5 -51.5
t39 -35.5t36.5 -21t39 -7q45 0 69.5 33.5t24.5 81.5zM50 319q0 48 16.5 83.5t40.5 58t51 33.5t48 11q24 0 45.5 -4t45.5 -17t52.5 -38t66.5 -67q37 42 66 67t53 38t45.5 17t45.5 4q21 0 48 -11t51 -33.5t40.5 -58t16.5 -83.5t-16.5 -83.5t-40.5 -58t-51 -33.5t-48 -11
q-24 0 -45.5 4t-45.5 17t-53 38t-66 67q-38 -42 -66.5 -67t-52.5 -38t-45.5 -17t-45.5 -4q-21 0 -48 11t-51 33.5t-40.5 58t-16.5 83.5z" />
    <glyph glyph-name="integral" unicode="&#x222b;" horiz-adv-x="398" 
d="M154 607q0 53 34 86t97 33h50q8 0 13 -5t5 -13v-34q0 -8 -5 -13t-13 -5h-39q-43 0 -55.5 -16.5t-12.5 -54.5v-650q0 -53 -33.5 -86t-96.5 -33h-35q-8 0 -13 5t-5 13v34q0 8 5 13t13 5h23q43 0 55.5 16.5t12.5 54.5v650z" />
    <glyph glyph-name="approxequal" unicode="&#x2248;" 
d="M363 178q18 1 39.5 11.5t35.5 19.5q7 5 16 5q10 0 15 -8l18 -35q3 -5 3 -10q0 -9 -10 -15q-6 -3 -18.5 -10.5t-30 -15t-37.5 -13t-40 -5.5q-23 0 -40 7.5t-32 16t-30.5 16t-37.5 7.5q-20 0 -42 -10.5t-37 -20.5q-8 -5 -16 -5q-10 0 -15 8l-18 35q-3 4 -3 10q0 9 13 17
q7 4 20.5 11.5t30.5 14t36.5 11.5t39.5 5q23 0 39.5 -7.5t31.5 -16t31 -16t38 -7.5zM363 387q18 1 39.5 11.5t35.5 19.5q7 5 16 5q10 0 15 -8l18 -35q3 -5 3 -10q0 -9 -10 -15q-6 -3 -18.5 -10.5t-30 -15t-37.5 -13t-40 -5.5q-23 0 -40 7.5t-32 16t-30.5 16t-37.5 7.5
q-20 0 -42 -10.5t-37 -20.5q-8 -5 -16 -5q-10 0 -15 8l-18 35q-3 4 -3 10q0 9 13 17q7 4 20.5 11.5t30.5 14t36.5 11.5t39.5 5q23 0 39.5 -7.5t31.5 -16t31 -16t38 -7.5z" />
    <glyph glyph-name="notequal" unicode="&#x2260;" 
d="M456 201q8 0 13 -5t5 -13v-36q0 -8 -5 -13t-13 -5h-211l-55 -115q-5 -15 -10.5 -18t-13.5 -3h-30q-14 0 -14 14q0 2 2 8v-1l55 115h-63q-8 0 -13 5t-5 13v36q0 8 5 13t13 5h98l64 134h-161q-8 0 -13 5t-5 13v36q0 8 5 13t13 5h196l56 116q5 14 11 17t14 3h30q13 0 13 -13
q0 -2 -2 -8l-56 -115h78q8 0 13 -5t5 -13v-36q0 -8 -5 -13t-13 -5h-113l-64 -134h176z" />
    <glyph glyph-name="lessequal" unicode="&#x2264;" 
d="M96 408q0 17 5 24.5t16 12.5l323 138q5 2 9.5 3t9.5 1q18 0 18 -22v-23q0 -25 -21 -31l-253 -104h251q8 0 13 -5t5 -13v-36q0 -8 -5 -13t-13 -5h-340q-8 0 -13 5t-5 13v55zM454 201q8 0 13 -5t5 -13v-36q0 -8 -5 -13t-13 -5h-340q-8 0 -13 5t-5 13v36q0 8 5 13t13 5h340z
" />
    <glyph glyph-name="greaterequal" unicode="&#x2265;" 
d="M477 353q0 -8 -5 -13t-13 -5h-340q-8 0 -13 5t-5 13v36q0 8 5 13t13 5h251l-253 104q-21 6 -21 31v23q0 22 18 22q5 0 9.5 -1t9.5 -3l323 -138q11 -5 16 -12.5t5 -24.5v-55zM459 201q8 0 13 -5t5 -13v-36q0 -8 -5 -13t-13 -5h-340q-8 0 -13 5t-5 13v36q0 8 5 13t13 5h340
z" />
    <glyph glyph-name="lozenge" unicode="&#x25ca;" horiz-adv-x="574" 
d="M534 333q0 -2 -1.5 -6.5t-2.5 -6.5l-184 -402q-4 -5 -10.5 -9t-15.5 -4h-66q-9 0 -15.5 4t-10.5 9l-184 402q-1 2 -2.5 6.5t-1.5 6.5t1.5 6.5t2.5 6.5l184 402q4 5 10.5 9t15.5 4h66q9 0 15.5 -4t10.5 -9l184 -402q1 -2 2.5 -6.5t1.5 -6.5zM287 709l-169 -376l169 -376
l169 376z" />
    <glyph glyph-name="apple" unicode="&#xf8ff;" horiz-adv-x="610" 
d="M555 371q0 -42 -26.5 -68.5t-68.5 -26.5h-73q17 -25 17 -56q0 -42 -26.5 -68.5t-68.5 -26.5h-254v254q0 42 26.5 68.5t68.5 26.5q31 0 56 -17v73q0 42 26.5 68.5t68.5 26.5t68.5 -26.5t26.5 -68.5v-64h64q42 0 68.5 -26.5t26.5 -68.5zM538 371q0 35 -21.5 56.5
t-56.5 21.5h-81v81q0 35 -21.5 56.5t-56.5 21.5t-56.5 -21.5t-21.5 -56.5v-237h237q35 0 56.5 21.5t21.5 56.5z" />
    <glyph glyph-name="fi" unicode="&#xfb01;" horiz-adv-x="464" 
d="M53 590q0 53 33.5 86t96.5 33h201q8 0 13 -5t5 -13v-34q0 -8 -5 -13t-13 -5h-189q-43 0 -55.5 -16.5t-12.5 -54.5v-68h112q8 0 13 -5t5 -13v-34q0 -8 -5 -13t-13 -5h-112v-412q0 -8 -5 -13t-13 -5h-38q-8 0 -13 5t-5 13v572zM329 517q0 8 5 13t13 5h38q8 0 13 -5t5 -13
v-499q0 -8 -5 -13t-13 -5h-38q-8 0 -13 5t-5 13v499z" />
    <glyph glyph-name="fl" unicode="&#xfb02;" horiz-adv-x="474" 
d="M195 639q-43 0 -55.5 -16.5t-12.5 -54.5v-68h112q8 0 13 -5t5 -13v-34q0 -8 -5 -13t-13 -5h-112v-412q0 -8 -5 -13t-13 -5h-38q-8 0 -13 5t-5 13v572q0 53 33.5 86t96.5 33h212q8 0 13 -5t5 -13v-673q0 -8 -5 -13t-13 -5h-38q-8 0 -13 5t-5 13v621h-144z" />
    </font>
</defs>
</svg>
